<svg xmlns="http://www.w3.org/2000/svg" viewBox="0 0 626.18 427.15"><defs><style>.cls-1{fill:#0018f8;}</style></defs><g id="Layer_2" data-name="Layer 2"><g id="Layer_2-2" data-name="Layer 2"><path class="cls-1" d="M63.49,351.51q-19.65,0-29.75-11.31T23.64,311a60.76,60.76,0,0,1,6.74-28.27,50.82,50.82,0,0,1,9.82-13.46q5.92-5.79,16-9.56a65.16,65.16,0,0,1,22.88-3.77,33,33,0,0,1,7.68.81c2.24.54,3.36.9,3.36,1.07a142.52,142.52,0,0,1-.87,14.74c-.59,5.52-.92,8.33-1,8.42q-.67.67-5.59,2.15a28.2,28.2,0,0,1-7.33,1.48v-.8c0-4-.59-6.87-1.75-8.49s-3.19-2.42-6.06-2.42q-9.56,0-17.77,10t-8.21,27.53a31.09,31.09,0,0,0,4.57,16.69,17.77,17.77,0,0,0,7.07,6.33,23.48,23.48,0,0,0,11,2.42q12.66,0,24.64-11.71c.35,0,1.1.56,2.22,1.68a21.86,21.86,0,0,1,3.3,4.51q3.36,5.38,3.36,6.6t-4.17,4.51q-4.17,3.3-12.66,6.66A46.74,46.74,0,0,1,63.49,351.51Z"/><path class="cls-1" d="M106.43,328.22l.54-48.73q0-10.64-.27-14.41c-.18-2.51-.27-3.85-.27-4q0-1.35,4.51-3.1a22.44,22.44,0,0,1,8-1.75c2.33,0,3.5.18,3.5.54q-.67,5-.67,35l-.27,33c0,6.19.09,10,.27,11.44a24,24,0,0,0,3.9,10.77c0,.9-1.84,2.33-5.52,4.31s-6.82,3-9.42,3q-1.08,0-2.43-4a32.25,32.25,0,0,1-1.61-7Q106.43,340.21,106.43,328.22Z"/><path class="cls-1" d="M183.09,341.48q-7.74,9.34-21,9.35t-20.8-8.21q-7.53-8.21-7.53-21.33A33.38,33.38,0,0,1,143.11,298q9.36-10.17,25.24-10.17,6.47.27,7,.81a4,4,0,0,1,.54,2.56,27,27,0,0,1-.4,4.44q2,0,5.18,2.36a29.64,29.64,0,0,1,5.18,4.78,21.22,21.22,0,0,1,3.5,6.79,30.3,30.3,0,0,1,1.48,9.76A33.66,33.66,0,0,1,183.09,341.48Zm-11.91-31.57a11.08,11.08,0,0,0-6.06-2H164a6.12,6.12,0,0,1-.27-2.29,13.74,13.74,0,0,1,.41-3.36q-5.52,0-10.3,5t-4.78,13.86q0,10.5,6.73,14.54a13.17,13.17,0,0,0,7.07,1.62q4.51,0,8.48-4.18t4-12.38Q175.35,312.47,171.18,309.91Z"/><path class="cls-1" d="M239.43,331.85q0,7.27-6.8,13A42.53,42.53,0,0,1,218,353.05a46.71,46.71,0,0,1-13.8,2.5q-.67,0-1.89-1.62a16.71,16.71,0,0,1-3.36-10.37v-.94q10.5,0,16-3.63t5.52-7.54c0-1.7-1.13-3.5-3.37-5.39a43.14,43.14,0,0,0-7.4-5,28.62,28.62,0,0,1-7.41-5.72,10.81,10.81,0,0,1-3.36-7.47q0-8.2,10.23-15.08A38.5,38.5,0,0,1,231,286q1.34,0,3.5,3.7a16.16,16.16,0,0,1,2.28,7.61,31.47,31.47,0,0,0-8.07,1.61Q218,302.25,218,307.22q0,3.5,10.5,9.56a26.94,26.94,0,0,1,7.41,6.32A14.1,14.1,0,0,1,239.43,331.85Z"/><path class="cls-1" d="M292.33,347.33q-4.57,3.1-17.91,3.1T254,342.49q-7.12-8-7.13-21.2a33.79,33.79,0,0,1,8.55-23q8.53-9.76,24-9.76a21.39,21.39,0,0,1,11.64,3.36q5.31,3.38,5.32,11.78T289,320.28q-7.33,8.21-20,12.52c0,1.07,1.1,1.95,3.3,2.62a22.3,22.3,0,0,0,6.53,1q10.23,0,16.15-3.63a.54.54,0,0,1,.4-.14c.18,0,.27.85.27,2.56Q295.69,343,292.33,347.33Zm-11.71-42.8c0-2.61-1.4-3.91-4.18-3.91q-5.52,0-9.69,5.66a22.26,22.26,0,0,0-4.17,13.59q0,1.89.54,1.89,4.85-.13,11.17-5.59C278.51,312.54,280.62,308.65,280.62,304.53Z"/><path class="cls-1" d="M322.21,259.16q-.27,3.1-.67,17,10.09,0,10.1.41a22.89,22.89,0,0,1-1.35,8.14q-1.35,3.57-2.56,3.57H321.4q-.27,19.92-.26,32.37t.4,16.63a18,18,0,0,0,5.52,11.44c0,1-1.73,2.42-5.18,4.31a20.56,20.56,0,0,1-9.76,2.82c-.27,0-.79-.45-1.55-1.34a17.24,17.24,0,0,1-2.42-4.44,22.23,22.23,0,0,1-1.62-6.06q-.34-3-.34-21.14t.41-34.32l-7.54.13q-.68-.67-.67-5.85c0-3.46.4-5.54,1.21-6.26q3-.13,7.13-.27a76,76,0,0,0-.4-10.1c-.27-1.52-.41-2.42-.41-2.69q0-1.35,4.65-3.1a23.71,23.71,0,0,1,8.14-1.75C321,258.62,322.21,258.8,322.21,259.16Z"/><path class="cls-1" d="M403.79,309.37l-8.21.41c-.36,0-.54-.59-.54-1.75a24.87,24.87,0,0,1,1.21-5.93,14.12,14.12,0,0,1,3.09-6.05q1.89-1.89,31.77-1.89c5.12,0,7.68.23,7.68.67a42.64,42.64,0,0,1-4.58,15.48q-.13,36.22-.88,37.56t-4.91,3a19.63,19.63,0,0,1-7.07,1.68c-1.93,0-2.89-.13-2.89-.4,0-4.85-.23-7.76-.67-8.75l-.27-.27-.41.27q-7.94,7.94-20.73,7.94-17.49,0-26.31-11.31t-8.82-29.21a65.73,65.73,0,0,1,5.52-27.32,47,47,0,0,1,9-13.33q5.44-5.65,15.08-9.42A60.65,60.65,0,0,1,413.08,257a61.65,61.65,0,0,1,7.8.67q5,.68,5.32,1.08a6.85,6.85,0,0,1,.34,3,49.66,49.66,0,0,1-.68,7q-.67,4.44-1.48,5.25-4.17-2.16-14.13-2.16-14.28,0-22.75,9.56t-8.48,28q0,11.85,4.84,19a15.51,15.51,0,0,0,13.6,7.14q8.75,0,14.2-4.31t5.45-7.27V319.6q0-8.21-.8-9Q415.37,309.38,403.79,309.37Z"/><path class="cls-1" d="M481.32,342.22l-.13-2.83-.14-.27a24.88,24.88,0,0,1-8.14,7.94,18.55,18.55,0,0,1-9.62,3q-14.15,0-16.16-21.95-.27-3.49-.27-18t1.21-17.24q3.51-2.82,11.31-2.82c2.07,0,3.32.22,3.77.67,0,.09,0,1.3-.13,3.64q-.67,10.23-.68,15.75t.14,8.14c.09,1.75.15,2.87.2,3.36s.18,1.37.4,2.63a12,12,0,0,0,1,3.23,6.64,6.64,0,0,0,6.26,3.9q4.25,0,7.54-4.24t3.16-6v-4.57q0-24.64.81-26.52.67-1.22,4.24-2.56a19.9,19.9,0,0,1,7.07-1.35c2.33,0,3.68.18,4,.54l-.27,6.33q-.81,19.24-.81,29.75t.54,13.33a25.94,25.94,0,0,0,3.63,10.77c0,.89-1.84,2.33-5.51,4.3s-6.83,3-9.43,3c-.72,0-1.52-1.34-2.42-4A31.92,31.92,0,0,1,481.32,342.22Z"/><path class="cls-1" d="M558.05,309.78l.14,35.8a58.59,58.59,0,0,1-2.76,18.71q-2.76,8.22-6.73,12.66a34.71,34.71,0,0,1-9.09,7.27,34.18,34.18,0,0,1-17,4.71c-.27,0-.81-.67-1.62-2a25.89,25.89,0,0,1-2.28-5.45,21.4,21.4,0,0,1-1.08-6.4,28.54,28.54,0,0,0,10.23-1.95q5.11-2,7.13-4.17a34.91,34.91,0,0,0,4-5.59q4.17-6.6,4.18-21.4l-.14-3.9q0-.81-.27-.81c-.18,0-.36.13-.54.4l-.67,1a18.85,18.85,0,0,1-2,2.15,23.68,23.68,0,0,1-3.3,2.76,16.64,16.64,0,0,1-9.49,3.24,19.08,19.08,0,0,1-7.54-1.22,14.09,14.09,0,0,1-4.58-3.09,14.48,14.48,0,0,1-3-5.32,58.09,58.09,0,0,1-1.89-6.39,50.14,50.14,0,0,1-.94-8.08q-.54-7.14-.54-14.81a113.28,113.28,0,0,1,1.08-17.36l.4-1.89c0-.63,1.37-1.25,4.11-1.88a31.44,31.44,0,0,1,6.79-.95l4.31.68A208.38,208.38,0,0,0,523.59,309a51.89,51.89,0,0,0,1.89,15.21q1.88,6.06,6.32,6.06a9.56,9.56,0,0,0,7.07-2.63,11.86,11.86,0,0,0,3.3-5.18l.67-2.56q-.27-8.47-.27-18.24c0-6.5.22-10,.68-10.43,1.16-1.17,3.2-2.06,6.12-2.69a35.22,35.22,0,0,1,7.07-.95c1.79,0,2.69.14,2.69.41Q558.05,294.3,558.05,309.78Z"/><path class="cls-1" d="M609.07,331.85q0,7.27-6.8,13a42.53,42.53,0,0,1-14.67,8.21,46.71,46.71,0,0,1-13.8,2.5c-.45,0-1.08-.54-1.88-1.62a16.66,16.66,0,0,1-3.37-10.37v-.94q10.5,0,16-3.63t5.52-7.54c0-1.7-1.13-3.5-3.37-5.39a43.14,43.14,0,0,0-7.4-5,28.58,28.58,0,0,1-7.4-5.72,10.78,10.78,0,0,1-3.37-7.47q0-8.2,10.23-15.08A38.5,38.5,0,0,1,600.59,286q1.33,0,3.5,3.7a16.18,16.18,0,0,1,2.29,7.61,31.45,31.45,0,0,0-8.08,1.61q-10.63,3.38-10.63,8.35,0,3.5,10.5,9.56a27,27,0,0,1,7.4,6.32A14.1,14.1,0,0,1,609.07,331.85Z"/><path class="cls-1" d="M33.06,405.7l0-3.3A7.77,7.77,0,0,0,33,401a5.68,5.68,0,0,1-.87-1.62,6.15,6.15,0,0,1-.54-1.65q.35-.34,10.72-.34a9.43,9.43,0,0,1,2.57.13,4.07,4.07,0,0,1-.29,1.4,5.51,5.51,0,0,1-.61,1.22c-.21.31-.37.44-.46.41a8.73,8.73,0,0,0-1.25,0c-.75,0-1.78,0-3.1.14a6.25,6.25,0,0,0-2.17.32,13.43,13.43,0,0,0-.18,3.36l0,1.28q1.21,0,3.6,0a11.86,11.86,0,0,1,2.38.09,5.56,5.56,0,0,1-.73,2.51c-.18.32-.3.48-.34.45-.53,0-1.43,0-2.71.14a8,8,0,0,0-2.23.32s0,.88,0,2.57a10.16,10.16,0,0,0,.16,2.69c.32.32,2.07.49,5.25.49a20.3,20.3,0,0,0,2.6-.11,3.14,3.14,0,0,1,.67-.08,4.05,4.05,0,0,1-.49,1.74,4.9,4.9,0,0,1-1,1.53c-.2.2-2,.31-5.48.31s-5.24-.09-5.36-.25a10.31,10.31,0,0,1-.18-2.95q0-2.79.06-5.91a4.83,4.83,0,0,1-1.06-1.52,4.36,4.36,0,0,1-.5-1.78S32,405.74,33.06,405.7Z"/><path class="cls-1" d="M59.54,415.94a3.19,3.19,0,0,1-1.07,1.72c-.71.77-1.25,1.15-1.62,1.15q-.89-.37-4.39-5a58.18,58.18,0,0,0-3.06,5.5,3.09,3.09,0,0,1-1.76-.75,3.82,3.82,0,0,1-1.23-1.3q0-.58,3.91-6.35-3-4.12-3-4.59a3.63,3.63,0,0,1,1-1.43,3.7,3.7,0,0,1,1.5-1,28.82,28.82,0,0,0,2.56,4,28.18,28.18,0,0,1,4.16-5,4.27,4.27,0,0,1,1.44.67c.73.45,1.09.79,1.09,1a39.88,39.88,0,0,0-4.64,6.05Q57.77,414.9,59.54,415.94Z"/><path class="cls-1" d="M65.1,397.64c0,.47-.09,1.75-.15,3.85a11,11,0,0,1,2.29.09,5.32,5.32,0,0,1-.3,1.85c-.21.54-.4.81-.59.81H64.92q-.06,4.51-.06,7.34c0,1.89,0,3.14.09,3.78A4.09,4.09,0,0,0,66.2,418c0,.23-.39.55-1.17,1a4.67,4.67,0,0,1-2.22.64c-.06,0-.18-.1-.35-.3a4.05,4.05,0,0,1-.55-1,5.25,5.25,0,0,1-.37-1.38c0-.44-.07-2-.07-4.79s0-5.35.09-7.79l-1.71,0A3,3,0,0,1,59.7,403c0-.79.09-1.26.27-1.42l1.62-.06a17.44,17.44,0,0,0-.09-2.29c-.06-.35-.09-.55-.09-.61s.35-.44,1.05-.71a5.43,5.43,0,0,1,1.85-.39C64.84,397.52,65.1,397.56,65.1,397.64Z"/><path class="cls-1" d="M68.37,413.52l-.06-6.93a6.89,6.89,0,0,1,.12-1.93,3,3,0,0,1,1.16-.59,5.29,5.29,0,0,1,1.55-.26c.47,0,.71.05.71.15a17.55,17.55,0,0,0-.09,1.88,3.5,3.5,0,0,0,.06,1.05.15.15,0,0,0,.12-.07,2.64,2.64,0,0,0,.2-.25c.09-.11.29-.31.58-.59a5.3,5.3,0,0,1,1-.74,5,5,0,0,1,2.81-.85,2.4,2.4,0,0,1,.24,1.22,5.18,5.18,0,0,1-.43,2.48l-.12.24-.4-.06a4,4,0,0,0-3.45,1.8,2.45,2.45,0,0,0-.49,1.1v2.69a31.43,31.43,0,0,1-.09,3.76c-.57.55-1.69.82-3.36.82q-.24,0-.24-.09A34.68,34.68,0,0,0,68.37,413.52Z"/><path class="cls-1" d="M88.26,410.83c0,2.55,0,4,.09,4.46a4,4,0,0,0,1,2.42c0,.22-.41.56-1.21,1a4.64,4.64,0,0,1-2.18.67c-.19,0-.38-.27-.58-.81a6,6,0,0,1-.36-1.21A1.23,1.23,0,0,0,85,417l-.09.07a6,6,0,0,1-3.79,1.28,4.83,4.83,0,0,1-3.35-1.06,3.53,3.53,0,0,1-1.17-2.76,5.3,5.3,0,0,1,2.5-4.67,9.37,9.37,0,0,1,2.23-1,10,10,0,0,1,2.94-.61l.06,0c0-1-1.27-1.5-3.79-1.5a15.07,15.07,0,0,0-2.23.12h0a4.24,4.24,0,0,1,.38-1.52,4.46,4.46,0,0,1,.64-1.2,4.51,4.51,0,0,1,2.19-.27q3.48,0,5.13,1.33a5,5,0,0,1,1.65,4.11Zm-3.39,2v-1.16a2.81,2.81,0,0,0,0-.67A5.9,5.9,0,0,0,81.29,412a2,2,0,0,0-.94,1.68,1.44,1.44,0,0,0,.45,1.07,2,2,0,0,0,1.39.42,3.33,3.33,0,0,0,1.81-.55A2,2,0,0,0,84.87,412.79Z"/><path class="cls-1" d="M102,416.32a5.87,5.87,0,0,1-4.77,2.12,6.1,6.1,0,0,1-4.72-1.86,6.88,6.88,0,0,1-1.71-4.84,7.58,7.58,0,0,1,2.13-5.29,7.38,7.38,0,0,1,5.72-2.31,5.21,5.21,0,0,1,1.59.19.9.9,0,0,1,.12.58,6.39,6.39,0,0,1-.09,1,2.14,2.14,0,0,1,1.18.53,6.56,6.56,0,0,1,1.17,1.09,4.79,4.79,0,0,1,.8,1.54,7,7,0,0,1,.33,2.21A7.65,7.65,0,0,1,102,416.32Zm-2.71-7.17a2.5,2.5,0,0,0-1.37-.45h-.24a1.19,1.19,0,0,1-.07-.52,2.8,2.8,0,0,1,.1-.77,3.22,3.22,0,0,0-2.34,1.13,4.4,4.4,0,0,0-1.09,3.15,3.52,3.52,0,0,0,1.53,3.3,3,3,0,0,0,1.61.37,2.65,2.65,0,0,0,1.92-.95,3.94,3.94,0,0,0,.9-2.81A2.66,2.66,0,0,0,99.25,409.15Z"/><path class="cls-1" d="M106.22,413.52l-.06-6.93a6.89,6.89,0,0,1,.12-1.93,2.87,2.87,0,0,1,1.16-.59,5.23,5.23,0,0,1,1.54-.26q.72,0,.72.15a17.55,17.55,0,0,0-.09,1.88,3.5,3.5,0,0,0,.06,1.05.15.15,0,0,0,.12-.07l.2-.25c.09-.11.29-.31.58-.59a5.59,5.59,0,0,1,1-.74,5.08,5.08,0,0,1,2.81-.85,2.29,2.29,0,0,1,.25,1.22,5.18,5.18,0,0,1-.43,2.48l-.12.24-.4-.06a4,4,0,0,0-3.45,1.8,2.34,2.34,0,0,0-.49,1.1v2.69a31.43,31.43,0,0,1-.09,3.76c-.57.55-1.69.82-3.36.82-.16,0-.25,0-.25-.09A32.63,32.63,0,0,0,106.22,413.52Z"/><path class="cls-1" d="M123.75,404.54l-.06-4.52a9.13,9.13,0,0,1,.09-2,3.73,3.73,0,0,1,1.21-.72,4,4,0,0,1,1.6-.35c.51,0,.77,0,.77.12q-.26,5.07-.25,10.78a63.51,63.51,0,0,0,.19,6.81,4.11,4.11,0,0,0,1,2.45q0,.3-1.26,1a4.92,4.92,0,0,1-2.16.66c-.06,0-.15-.08-.27-.25a4,4,0,0,1-.7-2.08c0-.06,0-.09-.07-.09l-.09.06a4.34,4.34,0,0,1-3.82,1.84,3.79,3.79,0,0,1-3.23-1.62,6,6,0,0,1-1.19-3.64,8.61,8.61,0,0,1,2.13-5.88A8.07,8.07,0,0,1,123.75,404.54Zm.06,3.21s-.11-.06-.33-.06h-.12a3.9,3.9,0,0,0-3.07,1.25,4.58,4.58,0,0,0-1.12,3.18,3,3,0,0,0,.54,1.85,1.88,1.88,0,0,0,1.61.71,2,2,0,0,0,1.75-.94,3,3,0,0,0,.65-1.5C123.72,410,123.75,408.48,123.81,407.75Z"/><path class="cls-1" d="M132.08,399.41a1.78,1.78,0,0,1,1.36.55,2,2,0,0,1,.52,1.44,2,2,0,0,1-.69,1.51,2.21,2.21,0,0,1-1.53.62,1.73,1.73,0,0,1-1.34-.53,2,2,0,0,1-.51-1.42,2.08,2.08,0,0,1,.67-1.53A2.15,2.15,0,0,1,132.08,399.41Zm1.54,7.61-.06,4.94a29.57,29.57,0,0,0,.14,3.5,4.76,4.76,0,0,0,.78,2.09c0,.21-.42.53-1.26,1a4.69,4.69,0,0,1-2.14.67c-.18,0-.36-.3-.55-.91a9.09,9.09,0,0,1-.35-1.74c-.05-.55-.07-2.41-.07-5.56a28.89,28.89,0,0,1,.21-5.17,4.18,4.18,0,0,1,2.47-.55c.47,0,.76.07.86.19Z"/><path class="cls-1" d="M140.31,410.77l0,1.13v2.33a19.67,19.67,0,0,1-.12,3.39,3,3,0,0,1-1.38.61,7.89,7.89,0,0,1-1.6.21q-.63,0-.63-.09a31.75,31.75,0,0,0,.22-4.52l-.09-6.87a6.3,6.3,0,0,1,.15-2,2.87,2.87,0,0,1,1.16-.6,5.23,5.23,0,0,1,1.54-.26c.48,0,.72.05.72.16a11.8,11.8,0,0,0-.09,1.46c0,.49,0,.74.09.74l.09-.07a5.46,5.46,0,0,1,.46-.53,6,6,0,0,1,1.3-.86,4.05,4.05,0,0,1,1.89-.53,3.39,3.39,0,0,1,1.53.32,3.14,3.14,0,0,1,1,.78,3.72,3.72,0,0,1,.69,1.31,13.85,13.85,0,0,1,.44,1.59,15.76,15.76,0,0,1,.25,2c.06,1.12.09,2.54.09,4.27l-.09,3.58c0,.14-.34.28-1,.41a9,9,0,0,1-1.62.2l-1-.15a46.94,46.94,0,0,0,.31-5.34,16.31,16.31,0,0,0-.34-3.88c-.22-.86-.67-1.29-1.34-1.29a2.39,2.39,0,0,0-1.64.55,2.71,2.71,0,0,0-.81,1.1l-.21.52Z"/><path class="cls-1" d="M161.72,410.83c0,2.55,0,4,.09,4.46a4,4,0,0,0,1,2.42c0,.22-.4.56-1.2,1a4.71,4.71,0,0,1-2.19.67c-.18,0-.37-.27-.58-.81a5.81,5.81,0,0,1-.35-1.21,1.23,1.23,0,0,0-.07-.4l-.1.07a5.94,5.94,0,0,1-3.78,1.28,4.81,4.81,0,0,1-3.35-1.06,3.54,3.54,0,0,1-1.18-2.76,5.29,5.29,0,0,1,.75-2.89,5.44,5.44,0,0,1,1.76-1.78,9.19,9.19,0,0,1,2.23-1,10,10,0,0,1,2.93-.61l.06,0q0-1.5-3.78-1.5a15,15,0,0,0-2.23.12h0a4.08,4.08,0,0,1,.39-1.52,4.19,4.19,0,0,1,.64-1.2,4.49,4.49,0,0,1,2.18-.27q3.48,0,5.13,1.33a5,5,0,0,1,1.65,4.11Zm-3.39,2v-1.16a2.81,2.81,0,0,0,0-.67,5.89,5.89,0,0,0-3.54,1.07,2,2,0,0,0-.95,1.68,1.41,1.41,0,0,0,.46,1.07,2,2,0,0,0,1.39.42,3.3,3.3,0,0,0,1.8-.55A2,2,0,0,0,158.33,412.79Z"/><path class="cls-1" d="M164.9,413.52l-.06-6.93a6.89,6.89,0,0,1,.12-1.93,3,3,0,0,1,1.16-.59,5.29,5.29,0,0,1,1.55-.26c.47,0,.71.05.71.15a17.55,17.55,0,0,0-.09,1.88,3.5,3.5,0,0,0,.06,1.05.15.15,0,0,0,.12-.07,2.64,2.64,0,0,0,.2-.25c.09-.11.29-.31.58-.59a5.3,5.3,0,0,1,1-.74,5,5,0,0,1,2.81-.85,2.4,2.4,0,0,1,.24,1.22,5.18,5.18,0,0,1-.43,2.48l-.12.24-.4-.06a4,4,0,0,0-3.45,1.8,2.45,2.45,0,0,0-.49,1.1v2.69a31.43,31.43,0,0,1-.09,3.76c-.57.55-1.69.82-3.36.82q-.24,0-.24-.09A34.68,34.68,0,0,0,164.9,413.52Z"/><path class="cls-1" d="M185.76,409.12l0,8.13a13.29,13.29,0,0,1-.62,4.25,8.26,8.26,0,0,1-1.53,2.87,8,8,0,0,1-2.06,1.65,7.78,7.78,0,0,1-3.85,1.07c-.06,0-.18-.16-.37-.46a6.61,6.61,0,0,1-.52-1.24,4.93,4.93,0,0,1-.24-1.45,6.57,6.57,0,0,0,2.32-.44,4.27,4.27,0,0,0,1.62-.95,8.2,8.2,0,0,0,.92-1.27,9.44,9.44,0,0,0,.94-4.86l0-.88q0-.18-.06-.18s-.08,0-.12.09l-.15.23a4.42,4.42,0,0,1-.45.49,5.4,5.4,0,0,1-.74.62,3.79,3.79,0,0,1-2.16.73,4.43,4.43,0,0,1-1.71-.27,3.28,3.28,0,0,1-1-.7,3.37,3.37,0,0,1-.68-1.21,10,10,0,0,1-.65-3.28q-.12-1.62-.12-3.36a24.75,24.75,0,0,1,.25-3.94l.09-.43c0-.14.31-.29.93-.43a7.23,7.23,0,0,1,1.54-.21l1,.15a48.8,48.8,0,0,0-.34,5.1,11.9,11.9,0,0,0,.43,3.45q.44,1.38,1.44,1.38a2.16,2.16,0,0,0,1.6-.6,2.68,2.68,0,0,0,.75-1.17l.15-.58q-.06-1.94-.06-4.14a8.22,8.22,0,0,1,.15-2.37,2.78,2.78,0,0,1,1.39-.61,8.38,8.38,0,0,1,1.61-.22c.4,0,.61,0,.61.09A34.21,34.21,0,0,0,185.76,409.12Z"/><path class="cls-1" d="M198.32,402.83l0,1.44q8.13,0,8.12,6.29a7,7,0,0,1-.68,3.1,6.43,6.43,0,0,1-1.7,2.2,10.51,10.51,0,0,1-2.2,1.36,8.87,8.87,0,0,1-3.66.95v.45a48.77,48.77,0,0,0,.24,6.11,2.78,2.78,0,0,1-1.37.63,7.63,7.63,0,0,1-1.59.23c-.41,0-.61,0-.61-.09a37.8,37.8,0,0,1-.13-4l.16-14.2c0-1.67,0-2.83-.1-3.48a3.55,3.55,0,0,1,1.24-.7,4.21,4.21,0,0,1,1.51-.34A2.06,2.06,0,0,1,198.32,402.83Zm-.15,10.42,0,1.53a5.23,5.23,0,0,0,3.26-1.07,3.66,3.66,0,0,0,1.41-3.09q0-3.3-4.61-3.3l0,.4v1Z"/><path class="cls-1" d="M208.92,413.52l-.06-6.93a6.89,6.89,0,0,1,.12-1.93,2.87,2.87,0,0,1,1.16-.59,5.23,5.23,0,0,1,1.54-.26q.72,0,.72.15a17.55,17.55,0,0,0-.09,1.88,3.5,3.5,0,0,0,.06,1.05.15.15,0,0,0,.12-.07l.2-.25c.09-.11.29-.31.58-.59a5.59,5.59,0,0,1,1-.74,5.08,5.08,0,0,1,2.81-.85,2.29,2.29,0,0,1,.25,1.22,5.18,5.18,0,0,1-.43,2.48l-.12.24-.4-.06a4,4,0,0,0-3.45,1.8,2.34,2.34,0,0,0-.49,1.1v2.69a31.43,31.43,0,0,1-.09,3.76c-.57.55-1.69.82-3.36.82-.16,0-.25,0-.25-.09A32.63,32.63,0,0,0,208.92,413.52Z"/><path class="cls-1" d="M229.4,416.32a5.87,5.87,0,0,1-4.76,2.12,6.09,6.09,0,0,1-4.72-1.86,6.84,6.84,0,0,1-1.71-4.84,7.57,7.57,0,0,1,2.12-5.29,7.39,7.39,0,0,1,5.73-2.31,5.17,5.17,0,0,1,1.58.19c.09.08.13.27.13.58a5.47,5.47,0,0,1-.1,1,2.14,2.14,0,0,1,1.18.53,7,7,0,0,1,1.18,1.09,4.79,4.79,0,0,1,.79,1.54,7,7,0,0,1,.34,2.21A7.66,7.66,0,0,1,229.4,416.32Zm-2.7-7.17a2.56,2.56,0,0,0-1.38-.45h-.24a1.43,1.43,0,0,1-.06-.52,3.25,3.25,0,0,1,.09-.77,3.22,3.22,0,0,0-2.34,1.13,4.4,4.4,0,0,0-1.08,3.15,3.54,3.54,0,0,0,1.52,3.3,3.07,3.07,0,0,0,1.61.37,2.65,2.65,0,0,0,1.92-.95,3.94,3.94,0,0,0,.9-2.81A2.68,2.68,0,0,0,226.7,409.15Z"/><path class="cls-1" d="M239.34,413.16l.06,4.3a12.69,12.69,0,0,1-.64,4.22,8.12,8.12,0,0,1-1.55,2.84,7.67,7.67,0,0,1-2.11,1.62,8.23,8.23,0,0,1-3.88,1c-.06,0-.19-.16-.37-.46a6.46,6.46,0,0,1-.52-1.25,5.11,5.11,0,0,1-.24-1.47h.3a6.57,6.57,0,0,0,2.6-.64q2.83-1.44,2.84-6.69c0-1.35.06-2.9.06-4.66a9.22,9.22,0,0,0-.21-2.89,4.54,4.54,0,0,0-1.83-.73l-.46-.09a.77.77,0,0,1-.06-.34,2.75,2.75,0,0,1,.42-1.83,11.57,11.57,0,0,1,5.07-.92,1.59,1.59,0,0,1,.62.06Q239.34,409.37,239.34,413.16Zm-2-13.75a1.76,1.76,0,0,1,1.36.55,2,2,0,0,1,.52,1.44,2,2,0,0,1-.69,1.51,2.17,2.17,0,0,1-1.52.62,1.74,1.74,0,0,1-1.35-.55,2.14,2.14,0,0,1,.17-2.93A2.12,2.12,0,0,1,237.37,399.41Z"/><path class="cls-1" d="M252.2,417.65a8.05,8.05,0,0,1-4.06.7,5.91,5.91,0,0,1-4.64-1.8,6.93,6.93,0,0,1-1.62-4.81,7.65,7.65,0,0,1,1.94-5.23,6.87,6.87,0,0,1,5.45-2.21,4.81,4.81,0,0,1,2.64.76,2.9,2.9,0,0,1,1.21,2.67,5.69,5.69,0,0,1-1.66,3.78,10.49,10.49,0,0,1-4.54,2.84c0,.24.25.44.75.59a4.8,4.8,0,0,0,1.48.23,6.94,6.94,0,0,0,3.66-.82.15.15,0,0,1,.1,0s.06.19.06.58A4.37,4.37,0,0,1,252.2,417.65Zm-2.65-9.72c0-.59-.32-.88-1-.88a2.69,2.69,0,0,0-2.2,1.28,5,5,0,0,0-1,3.09c0,.28,0,.42.13.42a4.33,4.33,0,0,0,2.53-1.27A3.49,3.49,0,0,0,249.55,407.93Z"/><path class="cls-1" d="M261.28,418.53q-3.5,0-5.17-1.77a6.23,6.23,0,0,1-1.68-4.46,7.61,7.61,0,0,1,2.52-6,9,9,0,0,1,6.16-2.23,5.73,5.73,0,0,1,.82,0c.13.11.19.6.19,1.47s-.12,1.41-.37,1.59h-.21a6.23,6.23,0,0,0-3.82,1.1,3.6,3.6,0,0,0-1.07,1.43,5.49,5.49,0,0,0-.46,2.36,3.24,3.24,0,0,0,.83,2.27,3.44,3.44,0,0,0,2.65.9,5.55,5.55,0,0,0,2.54-.55l.15-.06a3.11,3.11,0,0,1,.25,1.65c0,.94-.12,1.5-.34,1.68A6.08,6.08,0,0,1,261.28,418.53Z"/><path class="cls-1" d="M270.71,397.64c0,.47-.09,1.75-.15,3.85a11,11,0,0,1,2.29.09,5.32,5.32,0,0,1-.3,1.85c-.21.54-.4.81-.58.81h-1.44q-.06,4.51-.06,7.34c0,1.89,0,3.14.09,3.78a4.09,4.09,0,0,0,1.25,2.59c0,.23-.39.55-1.17,1a4.64,4.64,0,0,1-2.22.64c-.06,0-.17-.1-.35-.3a4.41,4.41,0,0,1-.55-1,5.22,5.22,0,0,1-.36-1.38c-.06-.44-.08-2-.08-4.79s0-5.35.09-7.79l-1.71,0a3,3,0,0,1-.15-1.33c0-.79.09-1.26.27-1.42l1.62-.06a17.44,17.44,0,0,0-.09-2.29c-.06-.35-.09-.55-.09-.61s.35-.44,1.05-.71a5.48,5.48,0,0,1,1.85-.39C270.45,397.52,270.71,397.56,270.71,397.64Z"/><path class="cls-1" d="M282.45,414.13a3.8,3.8,0,0,1-1.55,2.95,9.52,9.52,0,0,1-3.33,1.86,10.47,10.47,0,0,1-3.13.57c-.1,0-.24-.12-.43-.37a3.76,3.76,0,0,1-.76-2.35v-.21a6.65,6.65,0,0,0,3.64-.83c.83-.55,1.25-1.12,1.25-1.71a1.75,1.75,0,0,0-.77-1.22,9.14,9.14,0,0,0-1.68-1.13,6.66,6.66,0,0,1-1.68-1.3,2.44,2.44,0,0,1-.76-1.69c0-1.25.77-2.39,2.32-3.43a8.79,8.79,0,0,1,4.95-1.55c.2,0,.47.28.8.84a3.68,3.68,0,0,1,.51,1.72,7.41,7.41,0,0,0-1.83.37c-1.61.51-2.41,1.14-2.41,1.89,0,.53.79,1.26,2.38,2.17a6.26,6.26,0,0,1,1.68,1.44A3.24,3.24,0,0,1,282.45,414.13Z"/><path class="cls-1" d="M298.48,404.54l-.06-4.52a9.13,9.13,0,0,1,.09-2,3.73,3.73,0,0,1,1.21-.72,4,4,0,0,1,1.6-.35c.51,0,.77,0,.77.12q-.25,5.07-.25,10.78a63.51,63.51,0,0,0,.19,6.81,4.11,4.11,0,0,0,1,2.45q0,.3-1.26,1a4.92,4.92,0,0,1-2.16.66c-.06,0-.15-.08-.27-.25a4,4,0,0,1-.7-2.08c0-.06,0-.09-.07-.09l-.09.06a4.34,4.34,0,0,1-3.82,1.84,3.79,3.79,0,0,1-3.23-1.62,6,6,0,0,1-1.2-3.64,8.62,8.62,0,0,1,2.14-5.88A8.06,8.06,0,0,1,298.48,404.54Zm.06,3.21s-.11-.06-.33-.06h-.12a3.9,3.9,0,0,0-3.07,1.25,4.58,4.58,0,0,0-1.12,3.18,3,3,0,0,0,.54,1.85,1.88,1.88,0,0,0,1.61.71,2,2,0,0,0,1.74-.94,3,3,0,0,0,.66-1.5C298.45,410,298.48,408.48,298.54,407.75Z"/><path class="cls-1" d="M315.34,417.65a8.05,8.05,0,0,1-4.06.7,5.93,5.93,0,0,1-4.64-1.8,6.93,6.93,0,0,1-1.62-4.81,7.7,7.7,0,0,1,1.94-5.23,6.87,6.87,0,0,1,5.45-2.21,4.81,4.81,0,0,1,2.64.76,2.9,2.9,0,0,1,1.21,2.67,5.69,5.69,0,0,1-1.66,3.78,10.49,10.49,0,0,1-4.54,2.84c0,.24.25.44.75.59a4.8,4.8,0,0,0,1.48.23,7,7,0,0,0,3.67-.82.12.12,0,0,1,.09,0s.06.19.06.58A4.37,4.37,0,0,1,315.34,417.65Zm-2.65-9.72c0-.59-.32-.88-.95-.88a2.7,2.7,0,0,0-2.2,1.28,5,5,0,0,0-1,3.09c0,.28,0,.42.13.42a4.33,4.33,0,0,0,2.53-1.27A3.49,3.49,0,0,0,312.69,407.93Z"/><path class="cls-1" d="M327.14,414.13a3.8,3.8,0,0,1-1.55,2.95,9.43,9.43,0,0,1-3.33,1.86,10.47,10.47,0,0,1-3.13.57c-.1,0-.24-.12-.43-.37a3.82,3.82,0,0,1-.76-2.35v-.21a6.65,6.65,0,0,0,3.64-.83c.83-.55,1.25-1.12,1.25-1.71a1.75,1.75,0,0,0-.77-1.22,9.14,9.14,0,0,0-1.68-1.13,6.66,6.66,0,0,1-1.68-1.3,2.48,2.48,0,0,1-.76-1.69c0-1.25.77-2.39,2.32-3.43a8.79,8.79,0,0,1,4.95-1.55c.21,0,.47.28.8.84a3.68,3.68,0,0,1,.51,1.72,7.41,7.41,0,0,0-1.83.37c-1.61.51-2.41,1.14-2.41,1.89,0,.53.79,1.26,2.38,2.17a6.26,6.26,0,0,1,1.68,1.44A3.18,3.18,0,0,1,327.14,414.13Z"/><path class="cls-1" d="M339.14,417.65a8.08,8.08,0,0,1-4.06.7,5.93,5.93,0,0,1-4.65-1.8,7,7,0,0,1-1.61-4.81,7.65,7.65,0,0,1,1.94-5.23,6.87,6.87,0,0,1,5.45-2.21,4.81,4.81,0,0,1,2.64.76,2.9,2.9,0,0,1,1.21,2.67,5.7,5.7,0,0,1-1.67,3.78,10.45,10.45,0,0,1-4.53,2.84c0,.24.25.44.74.59a4.87,4.87,0,0,0,1.49.23,7,7,0,0,0,3.66-.82.12.12,0,0,1,.09,0s.06.19.06.58A4.37,4.37,0,0,1,339.14,417.65Zm-2.66-9.72c0-.59-.31-.88-.94-.88a2.69,2.69,0,0,0-2.2,1.28,5,5,0,0,0-.95,3.09q0,.42.12.42a4.32,4.32,0,0,0,2.54-1.27A3.51,3.51,0,0,0,336.48,407.93Z"/><path class="cls-1" d="M342.41,413.52l-.06-6.93a6.89,6.89,0,0,1,.12-1.93,2.87,2.87,0,0,1,1.16-.59,5.23,5.23,0,0,1,1.54-.26q.72,0,.72.15a17.55,17.55,0,0,0-.09,1.88,3.5,3.5,0,0,0,.06,1.05.15.15,0,0,0,.12-.07l.2-.25c.09-.11.29-.31.58-.59a5.59,5.59,0,0,1,1-.74,5.08,5.08,0,0,1,2.81-.85,2.29,2.29,0,0,1,.25,1.22,5.18,5.18,0,0,1-.43,2.48l-.12.24-.4-.06a4,4,0,0,0-3.45,1.8,2.34,2.34,0,0,0-.49,1.1v2.69a31.43,31.43,0,0,1-.09,3.76c-.57.55-1.69.82-3.36.82q-.24,0-.24-.09A34.68,34.68,0,0,0,342.41,413.52Z"/><path class="cls-1" d="M357,418.32a4.33,4.33,0,0,1-1.41-.19,50.55,50.55,0,0,0-1.94-6.46q-1.94-5.81-1.93-7s.1-.12.32-.26a4.45,4.45,0,0,1,1.11-.41,7.06,7.06,0,0,1,1.8-.21,72.67,72.67,0,0,0,2.81,9.68c0,.1.06.1.13,0a31.9,31.9,0,0,0,1.68-5.18,44,44,0,0,0,1.25-5.48c0-.12.24-.23.67-.32a8.43,8.43,0,0,1,1.68-.14,2.29,2.29,0,0,1,1.41.31,61.51,61.51,0,0,1-2.17,7.89,71.64,71.64,0,0,1-2.42,7.26,4.2,4.2,0,0,1-2.35.52Z"/><path class="cls-1" d="M376.07,417.65a8.05,8.05,0,0,1-4.06.7,5.9,5.9,0,0,1-4.64-1.8,6.93,6.93,0,0,1-1.62-4.81,7.65,7.65,0,0,1,1.94-5.23,6.87,6.87,0,0,1,5.45-2.21,4.81,4.81,0,0,1,2.64.76,2.9,2.9,0,0,1,1.21,2.67,5.7,5.7,0,0,1-1.67,3.78,10.45,10.45,0,0,1-4.53,2.84c0,.24.25.44.75.59a4.76,4.76,0,0,0,1.48.23,7,7,0,0,0,3.66-.82.12.12,0,0,1,.09,0s.06.19.06.58A4.37,4.37,0,0,1,376.07,417.65Zm-2.66-9.72c0-.59-.31-.88-.94-.88a2.69,2.69,0,0,0-2.2,1.28,5,5,0,0,0-.95,3.09q0,.42.12.42a4.32,4.32,0,0,0,2.54-1.27A3.48,3.48,0,0,0,373.41,407.93Z"/><path class="cls-1" d="M395.1,417.65a8.05,8.05,0,0,1-4.06.7,5.91,5.91,0,0,1-4.64-1.8,6.93,6.93,0,0,1-1.62-4.81,7.65,7.65,0,0,1,1.94-5.23,6.87,6.87,0,0,1,5.45-2.21,4.81,4.81,0,0,1,2.64.76,2.9,2.9,0,0,1,1.21,2.67,5.7,5.7,0,0,1-1.67,3.78,10.45,10.45,0,0,1-4.53,2.84c0,.24.25.44.75.59a4.8,4.8,0,0,0,1.48.23,6.94,6.94,0,0,0,3.66-.82.13.13,0,0,1,.1,0s.06.19.06.58A4.37,4.37,0,0,1,395.1,417.65Zm-2.65-9.72c0-.59-.32-.88-.95-.88a2.69,2.69,0,0,0-2.2,1.28,5,5,0,0,0-.95,3.09q0,.42.12.42a4.32,4.32,0,0,0,2.54-1.27A3.49,3.49,0,0,0,392.45,407.93Z"/><path class="cls-1" d="M410.22,415.94a3.22,3.22,0,0,1-1.06,1.72c-.72.77-1.26,1.15-1.62,1.15q-.89-.37-4.4-5a58.18,58.18,0,0,0-3.06,5.5,3,3,0,0,1-1.75-.75,3.77,3.77,0,0,1-1.24-1.3q0-.58,3.91-6.35c-2-2.75-3-4.28-3-4.59a3.49,3.49,0,0,1,1-1.43,3.7,3.7,0,0,1,1.5-1,28.32,28.32,0,0,0,2.57,4,27.84,27.84,0,0,1,4.15-5,4.19,4.19,0,0,1,1.44.67c.73.45,1.1.79,1.1,1a39.21,39.21,0,0,0-4.65,6.05Q408.45,414.9,410.22,415.94Z"/><path class="cls-1" d="M415.78,397.64c0,.47-.09,1.75-.15,3.85a11,11,0,0,1,2.29.09,5.32,5.32,0,0,1-.3,1.85c-.21.54-.4.81-.58.81H415.6q-.06,4.51-.06,7.34c0,1.89,0,3.14.09,3.78a4.09,4.09,0,0,0,1.25,2.59c0,.23-.39.55-1.17,1a4.67,4.67,0,0,1-2.22.64c-.06,0-.18-.1-.35-.3a4.05,4.05,0,0,1-.55-1,5.25,5.25,0,0,1-.37-1.38c-.05-.44-.07-2-.07-4.79s0-5.35.09-7.79l-1.71,0a3,3,0,0,1-.15-1.33c0-.79.09-1.26.27-1.42l1.62-.06a17.44,17.44,0,0,0-.09-2.29c-.06-.35-.09-.55-.09-.61s.35-.44,1.05-.71a5.43,5.43,0,0,1,1.85-.39C415.52,397.52,415.78,397.56,415.78,397.64Z"/><path class="cls-1" d="M419.05,413.52l-.06-6.93a6.89,6.89,0,0,1,.12-1.93,3,3,0,0,1,1.16-.59,5.29,5.29,0,0,1,1.55-.26c.47,0,.71.05.71.15a17.55,17.55,0,0,0-.09,1.88,3.5,3.5,0,0,0,.06,1.05.15.15,0,0,0,.12-.07,2.64,2.64,0,0,0,.2-.25c.1-.11.29-.31.58-.59a5.3,5.3,0,0,1,1-.74,5,5,0,0,1,2.81-.85,2.4,2.4,0,0,1,.24,1.22,5.18,5.18,0,0,1-.43,2.48l-.12.24-.4-.06a4,4,0,0,0-3.45,1.8,2.45,2.45,0,0,0-.49,1.1v2.69a31.43,31.43,0,0,1-.09,3.76c-.57.55-1.69.82-3.36.82q-.24,0-.24-.09A34.68,34.68,0,0,0,419.05,413.52Z"/><path class="cls-1" d="M438.94,410.83c0,2.55,0,4,.09,4.46a4,4,0,0,0,1,2.42c0,.22-.4.56-1.21,1a4.64,4.64,0,0,1-2.18.67c-.19,0-.38-.27-.58-.81a5.24,5.24,0,0,1-.35-1.21,1.38,1.38,0,0,0-.08-.4l-.09.07a6,6,0,0,1-3.79,1.28,4.83,4.83,0,0,1-3.35-1.06,3.53,3.53,0,0,1-1.17-2.76,5.29,5.29,0,0,1,.75-2.89,5.42,5.42,0,0,1,1.75-1.78,9.55,9.55,0,0,1,2.23-1,10.06,10.06,0,0,1,2.94-.61l.06,0c0-1-1.27-1.5-3.79-1.5a15.07,15.07,0,0,0-2.23.12h0a4.24,4.24,0,0,1,.38-1.52,4.46,4.46,0,0,1,.64-1.2,4.51,4.51,0,0,1,2.19-.27q3.48,0,5.13,1.33a5,5,0,0,1,1.65,4.11Zm-3.39,2v-1.16a2.81,2.81,0,0,0,0-.67A5.9,5.9,0,0,0,432,412a2,2,0,0,0-.94,1.68,1.44,1.44,0,0,0,.45,1.07,2,2,0,0,0,1.39.42,3.3,3.3,0,0,0,1.81-.55A2,2,0,0,0,435.55,412.79Z"/><path class="cls-1" d="M452.64,416.32a5.87,5.87,0,0,1-4.77,2.12,6.1,6.1,0,0,1-4.72-1.86,6.88,6.88,0,0,1-1.71-4.84,7.58,7.58,0,0,1,2.13-5.29,7.38,7.38,0,0,1,5.72-2.31,5.21,5.21,0,0,1,1.59.19.9.9,0,0,1,.12.58,6.39,6.39,0,0,1-.09,1,2.14,2.14,0,0,1,1.18.53,6.56,6.56,0,0,1,1.17,1.09,4.79,4.79,0,0,1,.8,1.54,7,7,0,0,1,.34,2.21A7.66,7.66,0,0,1,452.64,416.32Zm-2.7-7.17a2.56,2.56,0,0,0-1.38-.45h-.24a1.37,1.37,0,0,1-.07-.52,3.25,3.25,0,0,1,.1-.77,3.22,3.22,0,0,0-2.34,1.13,4.4,4.4,0,0,0-1.09,3.15,3.52,3.52,0,0,0,1.53,3.3,3,3,0,0,0,1.61.37,2.65,2.65,0,0,0,1.92-.95,3.94,3.94,0,0,0,.9-2.81A2.68,2.68,0,0,0,449.94,409.15Z"/><path class="cls-1" d="M456.9,413.52l-.06-6.93a6.89,6.89,0,0,1,.12-1.93,2.87,2.87,0,0,1,1.16-.59,5.29,5.29,0,0,1,1.55-.26c.47,0,.71.05.71.15a17.55,17.55,0,0,0-.09,1.88,3.5,3.5,0,0,0,.06,1.05.15.15,0,0,0,.12-.07l.2-.25c.09-.11.29-.31.58-.59a5.59,5.59,0,0,1,1-.74,5.09,5.09,0,0,1,2.82-.85,2.4,2.4,0,0,1,.24,1.22,5.18,5.18,0,0,1-.43,2.48l-.12.24-.4-.06a4,4,0,0,0-3.45,1.8,2.34,2.34,0,0,0-.49,1.1v2.69a31.43,31.43,0,0,1-.09,3.76c-.57.55-1.69.82-3.36.82q-.24,0-.24-.09A34.68,34.68,0,0,0,456.9,413.52Z"/><path class="cls-1" d="M474.43,404.54l-.06-4.52a9.13,9.13,0,0,1,.09-2,3.73,3.73,0,0,1,1.21-.72,4.07,4.07,0,0,1,1.6-.35c.51,0,.77,0,.77.12-.16,3.38-.25,7-.25,10.78a66.59,66.59,0,0,0,.19,6.81,4.12,4.12,0,0,0,1,2.45c0,.2-.43.52-1.27,1a4.92,4.92,0,0,1-2.16.66c-.06,0-.15-.08-.27-.25a4,4,0,0,1-.7-2.08q0-.09-.06-.09l-.1.06a4.32,4.32,0,0,1-3.81,1.84,3.8,3.8,0,0,1-3.24-1.62,6,6,0,0,1-1.19-3.64,8.61,8.61,0,0,1,2.13-5.88A8.07,8.07,0,0,1,474.43,404.54Zm.07,3.21s-.12-.06-.34-.06H474a3.9,3.9,0,0,0-3.07,1.25,4.58,4.58,0,0,0-1.12,3.18,3,3,0,0,0,.54,1.85,1.88,1.88,0,0,0,1.61.71,2,2,0,0,0,1.75-.94,3,3,0,0,0,.65-1.5C474.4,410,474.43,408.48,474.5,407.75Z"/><path class="cls-1" d="M482.76,399.41a1.78,1.78,0,0,1,1.36.55,2,2,0,0,1,.52,1.44,2,2,0,0,1-.69,1.51,2.21,2.21,0,0,1-1.53.62,1.73,1.73,0,0,1-1.34-.53,2,2,0,0,1-.51-1.42,2.05,2.05,0,0,1,.68-1.53A2.11,2.11,0,0,1,482.76,399.41ZM484.3,407l-.06,4.94a32,32,0,0,0,.14,3.5,4.76,4.76,0,0,0,.78,2.09c0,.21-.42.53-1.26,1a4.65,4.65,0,0,1-2.13.67c-.19,0-.37-.3-.55-.91a9.15,9.15,0,0,1-.36-1.74c-.05-.55-.07-2.41-.07-5.56a28.89,28.89,0,0,1,.21-5.17,4.2,4.2,0,0,1,2.48-.55c.46,0,.75.07.85.19Z"/><path class="cls-1" d="M491,410.77l0,1.13v2.33a19.67,19.67,0,0,1-.12,3.39,2.92,2.92,0,0,1-1.38.61,7.89,7.89,0,0,1-1.6.21q-.63,0-.63-.09a31.75,31.75,0,0,0,.22-4.52l-.09-6.87a6.3,6.3,0,0,1,.15-2,2.87,2.87,0,0,1,1.16-.6,5.23,5.23,0,0,1,1.54-.26c.48,0,.72.05.72.16a11.8,11.8,0,0,0-.09,1.46c0,.49,0,.74.09.74l.09-.07a5.46,5.46,0,0,1,.46-.53,6,6,0,0,1,1.3-.86,4.05,4.05,0,0,1,1.89-.53,3.39,3.39,0,0,1,1.53.32,3.14,3.14,0,0,1,1,.78,3.72,3.72,0,0,1,.69,1.31,13.85,13.85,0,0,1,.44,1.59,15.76,15.76,0,0,1,.25,2c.06,1.12.09,2.54.09,4.27l-.09,3.58c0,.14-.34.28-1,.41a9,9,0,0,1-1.62.2l-1-.15a46.94,46.94,0,0,0,.31-5.34,16.31,16.31,0,0,0-.34-3.88c-.22-.86-.67-1.29-1.34-1.29a2.39,2.39,0,0,0-1.64.55,2.71,2.71,0,0,0-.81,1.1l-.21.52Z"/><path class="cls-1" d="M512.4,410.83c0,2.55,0,4,.1,4.46a3.93,3.93,0,0,0,1,2.42c0,.22-.41.56-1.21,1a4.67,4.67,0,0,1-2.19.67c-.18,0-.37-.27-.58-.81a5.81,5.81,0,0,1-.35-1.21,1.23,1.23,0,0,0-.07-.4l-.1.07a5.94,5.94,0,0,1-3.78,1.28,4.83,4.83,0,0,1-3.35-1.06,3.53,3.53,0,0,1-1.17-2.76,5.29,5.29,0,0,1,.74-2.89,5.44,5.44,0,0,1,1.76-1.78,9.37,9.37,0,0,1,2.23-1,10,10,0,0,1,2.93-.61l.06,0q0-1.5-3.78-1.5a15,15,0,0,0-2.23.12h0a4,4,0,0,1,.38-1.52,1.94,1.94,0,0,1,2.82-1.47c2.32,0,4,.44,5.13,1.33a5,5,0,0,1,1.65,4.11Zm-3.39,2v-1.16a2.81,2.81,0,0,0,0-.67,5.89,5.89,0,0,0-3.54,1.07,2,2,0,0,0-.95,1.68,1.44,1.44,0,0,0,.46,1.07,2,2,0,0,0,1.39.42,3.3,3.3,0,0,0,1.8-.55A2,2,0,0,0,509,412.79Z"/><path class="cls-1" d="M515.58,413.52l-.06-6.93a6.89,6.89,0,0,1,.12-1.93,3,3,0,0,1,1.16-.59,5.29,5.29,0,0,1,1.55-.26c.47,0,.71.05.71.15a17.55,17.55,0,0,0-.09,1.88,3.5,3.5,0,0,0,.06,1.05.19.19,0,0,0,.13-.07l.19-.25c.1-.11.29-.31.58-.59a5.3,5.3,0,0,1,1-.74,5,5,0,0,1,2.81-.85,2.4,2.4,0,0,1,.24,1.22,5.18,5.18,0,0,1-.43,2.48l-.12.24-.4-.06a4,4,0,0,0-3.45,1.8,2.45,2.45,0,0,0-.49,1.1v2.69a31.43,31.43,0,0,1-.09,3.76c-.57.55-1.69.82-3.36.82q-.24,0-.24-.09A34.68,34.68,0,0,0,515.58,413.52Z"/><path class="cls-1" d="M536.45,409.12l0,8.13a13.28,13.28,0,0,1-.63,4.25,8.26,8.26,0,0,1-1.53,2.87,8,8,0,0,1-2.06,1.65,7.78,7.78,0,0,1-3.85,1.07c-.06,0-.18-.16-.37-.46a6,6,0,0,1-.51-1.24,4.65,4.65,0,0,1-.25-1.45,6.57,6.57,0,0,0,2.32-.44,4.19,4.19,0,0,0,1.62-.95,8.2,8.2,0,0,0,.92-1.27,9.44,9.44,0,0,0,.94-4.86l0-.88q0-.18-.06-.18s-.08,0-.12.09l-.15.23a5.15,5.15,0,0,1-.44.49,6.16,6.16,0,0,1-.75.62,3.79,3.79,0,0,1-2.16.73,4.43,4.43,0,0,1-1.71-.27,2.86,2.86,0,0,1-1.72-1.91,11.47,11.47,0,0,1-.43-1.45,12.7,12.7,0,0,1-.22-1.83q-.12-1.62-.12-3.36a24.75,24.75,0,0,1,.25-3.94l.09-.43c0-.14.31-.29.93-.43a7.31,7.31,0,0,1,1.54-.21l1,.15a48.8,48.8,0,0,0-.34,5.1,11.9,11.9,0,0,0,.43,3.45q.44,1.38,1.44,1.38a2.14,2.14,0,0,0,1.6-.6,2.68,2.68,0,0,0,.75-1.17l.15-.58q-.06-1.94-.06-4.14a8.22,8.22,0,0,1,.15-2.37,2.78,2.78,0,0,1,1.39-.61,8.38,8.38,0,0,1,1.61-.22c.41,0,.61,0,.61.09A34.61,34.61,0,0,0,536.45,409.12Z"/><path class="cls-1" d="M553.89,405.79c1.36,0,2.06.14,2.11.4a38.13,38.13,0,0,0,1.61,7h.13a29.27,29.27,0,0,0,1.49-5,41.53,41.53,0,0,0,.95-5.07,6.11,6.11,0,0,1,3,.64c.25.12.37.2.37.24a21.37,21.37,0,0,1-.93,4.74q-.93,3.39-1.86,6.15a28.15,28.15,0,0,1-1.06,2.89,2.94,2.94,0,0,1-1.07.26,12.32,12.32,0,0,1-1.74.13,2.83,2.83,0,0,1-1-.12,12.27,12.27,0,0,1-1-3,41,41,0,0,1-1-4.55h-.1c-.3,1.24-.71,2.71-1.23,4.4a16.51,16.51,0,0,1-1,2.73,2.89,2.89,0,0,1-1.23.4,9.51,9.51,0,0,1-1.65.2c-.4,0-.64,0-.7-.1a46.51,46.51,0,0,1-1.83-6,40.72,40.72,0,0,1-1.59-7.3s.11-.13.32-.26a3.88,3.88,0,0,1,1.13-.4,7.8,7.8,0,0,1,1.82-.2,43.05,43.05,0,0,0,2.08,8.77q.06.15.15,0a16.73,16.73,0,0,0,1.07-3.12,23.07,23.07,0,0,0,.67-3.39c0-.1.26-.19.73-.27A8.25,8.25,0,0,1,553.89,405.79Z"/><path class="cls-1" d="M576.17,416.32a5.87,5.87,0,0,1-4.76,2.12,6.09,6.09,0,0,1-4.72-1.86,6.88,6.88,0,0,1-1.71-4.84,7.57,7.57,0,0,1,2.12-5.29,7.39,7.39,0,0,1,5.73-2.31,5.35,5.35,0,0,1,1.59.19.9.9,0,0,1,.12.58,6.39,6.39,0,0,1-.09,1,2.15,2.15,0,0,1,1.17.53,7,7,0,0,1,1.18,1.09,4.79,4.79,0,0,1,.79,1.54,6.7,6.7,0,0,1,.34,2.21A7.66,7.66,0,0,1,576.17,416.32Zm-2.7-7.17a2.56,2.56,0,0,0-1.38-.45h-.24a1.43,1.43,0,0,1-.06-.52,3.25,3.25,0,0,1,.09-.77,3.24,3.24,0,0,0-2.34,1.13,4.4,4.4,0,0,0-1.08,3.15A3.52,3.52,0,0,0,570,415a3,3,0,0,0,1.6.37,2.65,2.65,0,0,0,1.92-.95,3.94,3.94,0,0,0,.91-2.81A2.68,2.68,0,0,0,573.47,409.15Z"/><path class="cls-1" d="M580.43,413.52l-.06-6.93a6.89,6.89,0,0,1,.12-1.93,3,3,0,0,1,1.17-.59,5.23,5.23,0,0,1,1.54-.26q.72,0,.72.15a15.14,15.14,0,0,0-.1,1.88,3.5,3.5,0,0,0,.06,1.05.16.16,0,0,0,.13-.07l.2-.25a7,7,0,0,1,.58-.59,4.92,4.92,0,0,1,1-.74,5,5,0,0,1,2.81-.85,2.4,2.4,0,0,1,.24,1.22,5.33,5.33,0,0,1-.42,2.48l-.13.24-.39-.06a4,4,0,0,0-3.46,1.8,2.4,2.4,0,0,0-.48,1.1v2.69a29.83,29.83,0,0,1-.1,3.76c-.57.55-1.69.82-3.36.82q-.24,0-.24-.09A34.68,34.68,0,0,0,580.43,413.52Z"/><path class="cls-1" d="M590.57,411.72l-.09-10.6a12.78,12.78,0,0,1,.16-3.12,3.79,3.79,0,0,1,1.19-.7,4.27,4.27,0,0,1,1.59-.33c.5,0,.76,0,.76.12s-.07,1.53-.14,4.27-.11,4.53-.11,5.34,0,1.26,0,1.37.07.17.13.17l.06,0a29.7,29.7,0,0,1,2.9-2.6,6.49,6.49,0,0,1,2.48-1.56c1.2.76,1.8,1.37,1.8,1.84a22.69,22.69,0,0,0-2.17,1.58,6.8,6.8,0,0,0-1.38,1.29,10,10,0,0,0,.54,1.75,29.51,29.51,0,0,0,1.57,3.56,12.1,12.1,0,0,0,2.08,3.09c0,.24-.45.55-1.35.91a6.17,6.17,0,0,1-2.32.55c-.24,0-.72-.95-1.42-2.87s-1.18-3.4-1.45-4.46l-.06-.09c-.08,0-.34.3-.76.89a3,3,0,0,0-.65,1.19l.1,3.11a2.76,2.76,0,0,1-.13,1.23,2.87,2.87,0,0,1-1.37.61,8,8,0,0,1-1.6.21q-.63,0-.63-.09A52.64,52.64,0,0,0,590.57,411.72Z"/><path class="cls-1" d="M256.26,198.87a12,12,0,0,1-4.69-.78q0-21.9,3.78-62.44l1.17-13.43a22.94,22.94,0,0,1-3.45-6.78,22.76,22.76,0,0,1-1.63-6.39l.13-.39q.39-.52,6.51-.91t13.5-.39c4.91,0,7.58.21,8,.65s2.52,5.89,6.26,16.36,6.52,18.58,8.35,24.31c.17.44.39.65.65.65s.69-.93,1.3-2.8,3.13-8.39,7.56-19.55,7.39-17.49,8.87-19q1.17-1.17,12.64-1.18t11.48.66a30.22,30.22,0,0,1-1.76,7.69,53,53,0,0,1-2.94,7.69q4.56,41.32,4.57,73.14c0,.86-1.76,1.67-5.28,2.41a44.66,44.66,0,0,1-8.67,1.11c-2.26,0-3.39-.18-3.39-.53q.39-5.34.39-17.27T319,153.38q-.66-20.48-1.57-20.47l-.78.78a129.64,129.64,0,0,0-6.71,16.3q-4.11,11.46-6.85,20.59l-2.74,9c-.43,1-1.71,1.43-3.84,1.43a28.5,28.5,0,0,1-5.22-.39c-1.35-.26-2.06-.52-2.15-.78Q288.72,178.4,281,157t-8.87-22.88c-.26-.52-.47-.78-.65-.78s-.3.3-.39.91q-2.34,11.86-2.35,34.87t.66,26.66Q266.16,198.88,256.26,198.87Z"/><path class="cls-1" d="M369,197.44l.39-35.85v-1.7q-3.66-5.08-13-21.83t-10.11-17.8a11.1,11.1,0,0,0-8.21-3,4.31,4.31,0,0,1-.13-1.43,13.35,13.35,0,0,1,.85-3.72,11.3,11.3,0,0,1,1.17-2.86,6.37,6.37,0,0,1,2.41-.72,61.5,61.5,0,0,1,11.34-1c3.83,0,5.85.08,6.06.26a69.83,69.83,0,0,1,3.59,7.17q10.17,21.63,15,28.94h.26q.78-2.87,11.15-20.73t12.06-17.86a30.46,30.46,0,0,1,7.82,1,27.87,27.87,0,0,1,6.13,2.28c1.47.83,2.17,1.5,2.08,2q-6.9,7.69-18.31,24.71t-13.5,24.57q-.25,2.61-.26,16.82t1.05,18.64q0,1.58-4.18,2.35a44.2,44.2,0,0,1-8.14.78C371.91,198.48,370.07,198.13,369,197.44Z"/><path class="cls-1" d="M626.18,239.07H0l0-20.19L330.44,1.81a11,11,0,1,1,12.08,18.38L42.82,217.07H626.18Z"/></g></g></svg>