<svg xmlns="http://www.w3.org/2000/svg" viewBox="0 0 671.57 468.04"><defs><style>.cls-1{fill:#fff;}</style></defs><g id="Layer_2" data-name="Layer 2"><path class="cls-1" d="M83.88,367.75q-19.66,0-29.75-11.31T44,327.23A60.78,60.78,0,0,1,50.76,299a51,51,0,0,1,9.83-13.46q5.93-5.78,16-9.55a64.93,64.93,0,0,1,22.88-3.77,33.62,33.62,0,0,1,7.68.8q3.36.81,3.36,1.08a142.67,142.67,0,0,1-.87,14.74c-.59,5.52-.92,8.33-1,8.41-.45.46-2.31,1.17-5.59,2.16a28.25,28.25,0,0,1-7.34,1.48V300c0-4-.58-6.86-1.75-8.48s-3.18-2.42-6-2.42q-9.57,0-17.77,10T61.94,326.7a31.11,31.11,0,0,0,4.57,16.69,17.69,17.69,0,0,0,7.07,6.32,23.36,23.36,0,0,0,11,2.43q12.66,0,24.64-11.71.53,0,2.22,1.68a21,21,0,0,1,3.29,4.51q3.38,5.38,3.37,6.59c0,.81-1.39,2.32-4.17,4.51s-7,4.42-12.66,6.67A46.73,46.73,0,0,1,83.88,367.75Z"/><path class="cls-1" d="M126.82,344.46l.54-48.73c0-7.08-.09-11.89-.27-14.4s-.27-3.86-.27-4c0-.89,1.5-1.93,4.51-3.09a22.4,22.4,0,0,1,8-1.75c2.33,0,3.5.18,3.5.53q-.68,5-.68,35l-.26,33c0,6.2.08,10,.26,11.45a23.92,23.92,0,0,0,3.91,10.76q0,1.35-5.52,4.31t-9.42,3q-1.08,0-2.43-4a32.38,32.38,0,0,1-1.61-7Q126.82,356.44,126.82,344.46Z"/><path class="cls-1" d="M203.48,357.72q-7.74,9.36-21,9.36t-20.8-8.21q-7.53-8.22-7.54-21.34a33.4,33.4,0,0,1,9.36-23.29q9.36-10.15,25.24-10.16,6.47.27,7,.81a4,4,0,0,1,.54,2.56,27.23,27.23,0,0,1-.41,4.44q2,0,5.19,2.35a30.4,30.4,0,0,1,5.18,4.78,21.28,21.28,0,0,1,3.5,6.8,30.25,30.25,0,0,1,1.48,9.76A33.62,33.62,0,0,1,203.48,357.72Zm-11.91-31.56a11.08,11.08,0,0,0-6.06-2h-1.08a6.12,6.12,0,0,1-.27-2.29,13.82,13.82,0,0,1,.41-3.37c-3.68,0-7.12,1.67-10.3,5s-4.78,8-4.78,13.87q0,10.5,6.73,14.54a13.24,13.24,0,0,0,7.07,1.61q4.5,0,8.48-4.17t4-12.38Q195.74,328.71,191.57,326.16Z"/><path class="cls-1" d="M259.81,348.1q0,7.26-6.79,13a42.82,42.82,0,0,1-14.68,8.21,46.66,46.66,0,0,1-13.79,2.49q-.68,0-1.89-1.62a16.68,16.68,0,0,1-3.36-10.36v-.94q10.5,0,16-3.64t5.51-7.54c0-1.7-1.12-3.5-3.36-5.38a43.54,43.54,0,0,0-7.4-5,28.68,28.68,0,0,1-7.41-5.72,10.84,10.84,0,0,1-3.36-7.47q0-8.22,10.23-15.08a38.41,38.41,0,0,1,21.8-6.86q1.35,0,3.5,3.7a16,16,0,0,1,2.29,7.6,31.08,31.08,0,0,0-8.07,1.62q-10.63,3.36-10.64,8.34,0,3.51,10.5,9.56a27.12,27.12,0,0,1,7.4,6.33A14,14,0,0,1,259.81,348.1Z"/><path class="cls-1" d="M312.72,363.58q-4.58,3.09-17.91,3.09t-20.46-7.94q-7.14-7.94-7.13-21.2a33.76,33.76,0,0,1,8.55-23q8.53-9.75,24-9.76a21.41,21.41,0,0,1,11.65,3.37q5.31,3.36,5.32,11.78t-7.34,16.62q-7.34,8.22-20,12.52c0,1.08,1.1,1.95,3.3,2.63a22.3,22.3,0,0,0,6.53,1q10.22,0,16.15-3.64a.54.54,0,0,1,.4-.13q.27,0,.27,2.55Q316.08,359.28,312.72,363.58ZM301,320.77c0-2.6-1.4-3.9-4.18-3.9q-5.52,0-9.69,5.65a22.27,22.27,0,0,0-4.17,13.6c0,1.26.18,1.88.54,1.88q4.85-.13,11.17-5.58T301,320.77Z"/><path class="cls-1" d="M342.6,275.41q-.27,3.09-.67,17,10.1,0,10.09.4a23.18,23.18,0,0,1-1.34,8.15q-1.35,3.56-2.56,3.56h-6.33q-.27,19.93-.27,32.38t.41,16.62a18,18,0,0,0,5.52,11.44q0,1.49-5.19,4.31a20.43,20.43,0,0,1-9.76,2.83c-.27,0-.78-.45-1.54-1.35a17.16,17.16,0,0,1-2.43-4.44,22.37,22.37,0,0,1-1.61-6.06q-.35-3-.34-21.13t.41-34.33l-7.54.14q-.68-.67-.68-5.86t1.22-6.26q3-.13,7.13-.27a75.82,75.82,0,0,0-.4-10.09c-.27-1.53-.41-2.43-.41-2.7q0-1.33,4.65-3.09a23.48,23.48,0,0,1,8.14-1.75C341.43,274.87,342.6,275.05,342.6,275.41Z"/><path class="cls-1" d="M424.17,325.62,416,326c-.36,0-.53-.58-.53-1.75a24.81,24.81,0,0,1,1.21-5.92,14.12,14.12,0,0,1,3.09-6.06q1.89-1.87,31.77-1.88c5.12,0,7.67.22,7.67.67a29.78,29.78,0,0,1-1.68,8.41,30.42,30.42,0,0,1-2.89,7.07q-.14,36.21-.88,37.56t-4.91,3a19.63,19.63,0,0,1-7.07,1.68c-1.93,0-2.89-.14-2.89-.41,0-4.84-.23-7.76-.68-8.74l-.26-.27-.41.27q-7.94,7.94-20.73,7.94-17.5,0-26.32-11.31t-8.81-29.21a65.81,65.81,0,0,1,5.52-27.33,47,47,0,0,1,8.95-13.32q5.44-5.65,15.07-9.43a60.93,60.93,0,0,1,22.28-3.77,62,62,0,0,1,7.81.68c3.32.45,5.09.8,5.32,1.07a7,7,0,0,1,.33,3,49.24,49.24,0,0,1-.67,7q-.67,4.46-1.48,5.25-4.17-2.15-14.13-2.15-14.28,0-22.75,9.56t-8.48,28q0,11.85,4.84,19a15.5,15.5,0,0,0,13.6,7.13q8.75,0,14.2-4.3t5.45-7.27v-4.31q0-8.21-.81-9Q435.75,325.62,424.17,325.62Z"/><path class="cls-1" d="M501.71,358.46l-.13-2.82-.14-.27a25,25,0,0,1-8.14,7.94,18.66,18.66,0,0,1-9.63,3q-14.13,0-16.15-21.94-.27-3.49-.27-18t1.21-17.23c2.34-1.88,6.1-2.83,11.31-2.83,2.06,0,3.32.23,3.77.68,0,.09-.05,1.3-.14,3.63q-.67,10.23-.67,15.75t.14,8.15c.08,1.75.15,2.87.2,3.36s.18,1.37.4,2.63a11.8,11.8,0,0,0,1,3.23,6.63,6.63,0,0,0,6.26,3.9q4.25,0,7.54-4.24c2.2-2.83,3.25-4.82,3.16-6v-4.58q0-24.63.81-26.52c.45-.8,1.86-1.66,4.24-2.55a19.86,19.86,0,0,1,7.07-1.35c2.33,0,3.68.18,4,.54l-.27,6.33q-.81,19.24-.81,29.74t.54,13.33A25.84,25.84,0,0,0,520.69,363c0,.9-1.84,2.33-5.52,4.31s-6.82,3-9.42,3q-1.08,0-2.42-4A31.73,31.73,0,0,1,501.71,358.46Z"/><path class="cls-1" d="M578.44,326l.13,35.81a58.59,58.59,0,0,1-2.76,18.71q-2.74,8.2-6.73,12.65a36.44,36.44,0,0,1-26,12q-.4,0-1.62-2a26,26,0,0,1-2.29-5.46,21.31,21.31,0,0,1-1.07-6.39,28.54,28.54,0,0,0,10.23-1.95q5.12-2,7.13-4.18a35.42,35.42,0,0,0,4-5.58q4.17-6.6,4.17-21.41l-.13-3.9q0-.81-.27-.81c-.18,0-.36.14-.54.41l-.67,1a18.85,18.85,0,0,1-1.95,2.15,25.15,25.15,0,0,1-3.3,2.76,16.7,16.7,0,0,1-9.49,3.23,19.1,19.1,0,0,1-7.54-1.21,14.17,14.17,0,0,1-4.58-3.1,14.58,14.58,0,0,1-3-5.31,59.63,59.63,0,0,1-1.88-6.4,48.74,48.74,0,0,1-.94-8.08q-.54-7.12-.54-14.8a113.52,113.52,0,0,1,1.08-17.37l.4-1.88c0-.63,1.37-1.26,4.1-1.89a32.13,32.13,0,0,1,6.8-.94l4.31.67A208.53,208.53,0,0,0,544,325.21a52.29,52.29,0,0,0,1.88,15.22q1.89,6,6.33,6.05a9.56,9.56,0,0,0,7.07-2.62,11.86,11.86,0,0,0,3.3-5.18l.67-2.56q-.27-8.49-.27-18.24c0-6.51.22-10,.67-10.43q1.75-1.76,6.13-2.7a35.75,35.75,0,0,1,7.06-.94c1.8,0,2.7.14,2.7.4Q578.44,310.54,578.44,326Z"/><path class="cls-1" d="M629.46,348.1q0,7.26-6.8,13A42.69,42.69,0,0,1,608,369.3a46.66,46.66,0,0,1-13.8,2.49q-.68,0-1.89-1.62a16.68,16.68,0,0,1-3.36-10.36v-.94q10.5,0,16-3.64t5.52-7.54c0-1.7-1.13-3.5-3.37-5.38a43.14,43.14,0,0,0-7.4-5,29,29,0,0,1-7.41-5.72,10.84,10.84,0,0,1-3.36-7.47q0-8.22,10.23-15.08A38.42,38.42,0,0,1,621,302.2q1.34,0,3.5,3.7a16.26,16.26,0,0,1,2.29,7.6,31.13,31.13,0,0,0-8.08,1.62q-10.63,3.36-10.64,8.34,0,3.51,10.5,9.56a27.15,27.15,0,0,1,7.41,6.33A14.08,14.08,0,0,1,629.46,348.1Z"/><path class="cls-1" d="M53.45,422l0-3.3a7.84,7.84,0,0,0-.06-1.44,5.58,5.58,0,0,1-.88-1.62A6.23,6.23,0,0,1,52,414c.22-.23,3.8-.34,10.72-.34a10.46,10.46,0,0,1,2.57.12,4.08,4.08,0,0,1-.29,1.41,6.26,6.26,0,0,1-.61,1.22c-.22.3-.37.44-.46.41a7.93,7.93,0,0,0-1.25,0c-.75,0-1.78,0-3.1.14a6.54,6.54,0,0,0-2.17.32,12.62,12.62,0,0,0-.19,3.36l0,1.29c.82,0,2,0,3.61,0a11.86,11.86,0,0,1,2.38.09,5.49,5.49,0,0,1-.73,2.5c-.18.33-.3.48-.34.46-.53,0-1.43,0-2.72.14a8.21,8.21,0,0,0-2.23.32s0,.87,0,2.57a9.51,9.51,0,0,0,.16,2.68c.32.33,2.07.49,5.25.49a18.54,18.54,0,0,0,2.6-.11,2.61,2.61,0,0,1,.67-.07,4.05,4.05,0,0,1-.49,1.74,5.35,5.35,0,0,1-1,1.53c-.2.2-2,.3-5.48.3s-5.24-.08-5.36-.24a9.7,9.7,0,0,1-.19-2.95q0-2.79.06-5.91a5.19,5.19,0,0,1-1.05-1.53,4.28,4.28,0,0,1-.5-1.77S52.37,422,53.45,422Z"/><path class="cls-1" d="M79.93,432.18c0,.39-.36,1-1.07,1.73s-1.25,1.14-1.62,1.14c-.59-.24-2-1.91-4.4-5a58.55,58.55,0,0,0-3,5.5,3.07,3.07,0,0,1-1.76-.75,3.9,3.9,0,0,1-1.23-1.29q0-.58,3.91-6.36c-2-2.75-3-4.27-3-4.58a3.49,3.49,0,0,1,1-1.44,3.66,3.66,0,0,1,1.5-1,28.82,28.82,0,0,0,2.56,4,27.73,27.73,0,0,1,4.16-5,4,4,0,0,1,1.43.67c.74.45,1.1.78,1.1,1a39.38,39.38,0,0,0-4.64,6.05Q78.16,431.15,79.93,432.18Z"/><path class="cls-1" d="M85.49,413.88c0,.47-.09,1.76-.15,3.85a11,11,0,0,1,2.29.09,5.05,5.05,0,0,1-.31,1.85c-.2.54-.39.81-.58.81H85.31q-.06,4.53-.06,7.35c0,1.88,0,3.14.09,3.77a4.09,4.09,0,0,0,1.25,2.6c0,.22-.39.55-1.18,1a4.71,4.71,0,0,1-2.21.64c-.06,0-.18-.11-.35-.31a3.6,3.6,0,0,1-.55-1,4.74,4.74,0,0,1-.37-1.37c-.05-.45-.07-2.05-.07-4.8s0-5.34.09-7.79l-1.71,0c-.11-.1-.16-.54-.16-1.32s.1-1.26.28-1.43l1.62-.06a17.55,17.55,0,0,0-.09-2.29,4.71,4.71,0,0,1-.1-.61c0-.2.36-.44,1.06-.7a5.24,5.24,0,0,1,1.85-.4C85.23,413.76,85.49,413.8,85.49,413.88Z"/><path class="cls-1" d="M88.76,429.77l-.06-6.94a6.73,6.73,0,0,1,.12-1.92,3,3,0,0,1,1.16-.6,5.23,5.23,0,0,1,1.54-.26c.48,0,.72.06.72.16a17.42,17.42,0,0,0-.09,1.88,3.5,3.5,0,0,0,.06,1.05.17.17,0,0,0,.12-.08l.2-.24c.09-.11.29-.31.58-.6a5.53,5.53,0,0,1,1-.73,5.09,5.09,0,0,1,2.81-.86,2.36,2.36,0,0,1,.25,1.23,5.14,5.14,0,0,1-.43,2.47l-.12.25-.4-.07a4,4,0,0,0-3.45,1.81,2.3,2.3,0,0,0-.49,1.1v2.68a31.15,31.15,0,0,1-.09,3.76c-.57.55-1.69.83-3.36.83-.16,0-.25,0-.25-.1A32.47,32.47,0,0,0,88.76,429.77Z"/><path class="cls-1" d="M108.65,427.08c0,2.55,0,4,.09,4.46a4,4,0,0,0,1,2.41c0,.23-.41.56-1.21,1a4.56,4.56,0,0,1-2.19.67c-.18,0-.37-.27-.58-.81a5.94,5.94,0,0,1-.35-1.2c0-.27,0-.4-.07-.4l-.09.06a5.91,5.91,0,0,1-3.79,1.28,4.87,4.87,0,0,1-3.35-1.05A3.53,3.53,0,0,1,97,430.75a5.35,5.35,0,0,1,.74-2.89,5.58,5.58,0,0,1,1.76-1.79,13,13,0,0,1,5.16-1.59l.06,0c0-1-1.26-1.49-3.78-1.49a15.07,15.07,0,0,0-2.23.12h0a4,4,0,0,1,.38-1.53,4.35,4.35,0,0,1,.64-1.19,4.49,4.49,0,0,1,2.18-.27q3.49,0,5.14,1.32a5,5,0,0,1,1.65,4.11Zm-3.4,2v-1.16a2.94,2.94,0,0,0,0-.68,6,6,0,0,0-3.54,1.07,2,2,0,0,0-1,1.68,1.41,1.41,0,0,0,.46,1.07,2,2,0,0,0,1.39.43,3.3,3.3,0,0,0,1.8-.55A2,2,0,0,0,105.25,429Z"/><path class="cls-1" d="M122.35,432.56a5.87,5.87,0,0,1-4.77,2.13,6.06,6.06,0,0,1-4.72-1.87,6.86,6.86,0,0,1-1.71-4.84,7.59,7.59,0,0,1,2.12-5.28,7.42,7.42,0,0,1,5.73-2.31,5,5,0,0,1,1.59.18.94.94,0,0,1,.12.58,6.19,6.19,0,0,1-.09,1,2.17,2.17,0,0,1,1.18.54,6.89,6.89,0,0,1,1.17,1.08,4.9,4.9,0,0,1,.8,1.54,7,7,0,0,1,.33,2.22A7.62,7.62,0,0,1,122.35,432.56Zm-2.71-7.16a2.47,2.47,0,0,0-1.37-.46H118a1.39,1.39,0,0,1-.06-.52,3.16,3.16,0,0,1,.09-.76,3.22,3.22,0,0,0-2.33,1.13,4.32,4.32,0,0,0-1.09,3.15,3.54,3.54,0,0,0,1.53,3.3,3,3,0,0,0,1.6.36,2.62,2.62,0,0,0,1.93-1,3.92,3.92,0,0,0,.9-2.81A2.66,2.66,0,0,0,119.64,425.4Z"/><path class="cls-1" d="M126.61,429.77l-.06-6.94a6.73,6.73,0,0,1,.12-1.92,3,3,0,0,1,1.16-.6,5.23,5.23,0,0,1,1.54-.26c.48,0,.72.06.72.16a17.42,17.42,0,0,0-.09,1.88,3.5,3.5,0,0,0,.06,1.05.17.17,0,0,0,.12-.08l.2-.24c.09-.11.28-.31.58-.6a5.18,5.18,0,0,1,1-.73,5.07,5.07,0,0,1,2.81-.86,2.36,2.36,0,0,1,.25,1.23,5.26,5.26,0,0,1-.43,2.47l-.12.25-.4-.07a4,4,0,0,0-3.45,1.81,2.3,2.3,0,0,0-.49,1.1v2.68a31.15,31.15,0,0,1-.09,3.76c-.57.55-1.69.83-3.36.83-.17,0-.25,0-.25-.1A32.47,32.47,0,0,0,126.61,429.77Z"/><path class="cls-1" d="M144.14,420.79l-.06-4.52a9.19,9.19,0,0,1,.09-2,4.12,4.12,0,0,1,1.21-.72,4.21,4.21,0,0,1,1.6-.35c.51,0,.77,0,.77.12q-.25,5.07-.25,10.79a63.51,63.51,0,0,0,.19,6.81,4.08,4.08,0,0,0,1,2.44c0,.21-.42.53-1.26,1a5,5,0,0,1-2.16.65q-.09,0-.27-.24a4,4,0,0,1-.71-2.08q0-.09-.06-.09l-.09.06a4.36,4.36,0,0,1-3.82,1.83,3.82,3.82,0,0,1-3.24-1.62,6,6,0,0,1-1.19-3.63,8.62,8.62,0,0,1,2.14-5.88A8.06,8.06,0,0,1,144.14,420.79Zm.06,3.21c0-.05-.11-.07-.33-.07h-.13a3.9,3.9,0,0,0-3.07,1.26,4.59,4.59,0,0,0-1.11,3.17,3,3,0,0,0,.53,1.85,1.9,1.9,0,0,0,1.62.72,2,2,0,0,0,1.74-.95,3,3,0,0,0,.66-1.49C144.11,426.22,144.14,424.73,144.2,424Z"/><path class="cls-1" d="M152.47,415.66a1.74,1.74,0,0,1,1.35.55,2,2,0,0,1,.52,1.43,2,2,0,0,1-.68,1.51,2.22,2.22,0,0,1-1.53.63,1.76,1.76,0,0,1-1.34-.53,2,2,0,0,1-.51-1.43,2,2,0,0,1,.67-1.52A2.15,2.15,0,0,1,152.47,415.66Zm1.54,7.6-.06,4.95a32.7,32.7,0,0,0,.13,3.5,5.07,5.07,0,0,0,.78,2.09c0,.2-.41.53-1.25,1a4.69,4.69,0,0,1-2.14.67c-.18,0-.36-.3-.55-.92a9.09,9.09,0,0,1-.35-1.74c0-.55-.07-2.4-.07-5.56a28.82,28.82,0,0,1,.21-5.16,4.11,4.11,0,0,1,2.47-.55c.47,0,.76.06.86.18Z"/><path class="cls-1" d="M160.7,427l0,1.13v2.32a19.57,19.57,0,0,1-.12,3.39,2.78,2.78,0,0,1-1.38.61,7.42,7.42,0,0,1-1.6.22c-.42,0-.63,0-.63-.1a33.25,33.25,0,0,0,.22-4.52l-.1-6.87a5.91,5.91,0,0,1,.16-2.05,2.87,2.87,0,0,1,1.16-.59,5.23,5.23,0,0,1,1.54-.26q.72,0,.72.15a12.08,12.08,0,0,0-.09,1.47c0,.49,0,.73.09.73l.09-.06a4.34,4.34,0,0,1,.46-.53,5.42,5.42,0,0,1,1.3-.86,3.94,3.94,0,0,1,1.89-.53A3.26,3.26,0,0,1,166,421a3.38,3.38,0,0,1,1,.77,4.25,4.25,0,0,1,.69,1.32,13.85,13.85,0,0,1,.44,1.59,18,18,0,0,1,.25,1.95c.06,1.12.09,2.55.09,4.28l-.09,3.57c0,.15-.34.28-1,.42a8.85,8.85,0,0,1-1.62.19l-1-.15a49.18,49.18,0,0,0,.31-5.33,16.86,16.86,0,0,0-.34-3.88c-.22-.86-.67-1.3-1.34-1.3a2.42,2.42,0,0,0-1.64.55,2.66,2.66,0,0,0-.81,1.1l-.21.52Z"/><path class="cls-1" d="M182.11,427.08c0,2.55,0,4,.09,4.46a4,4,0,0,0,1,2.41c0,.23-.4.56-1.2,1a4.59,4.59,0,0,1-2.19.67c-.18,0-.38-.27-.58-.81a5.94,5.94,0,0,1-.35-1.2c0-.27-.06-.4-.08-.4l-.09.06a5.89,5.89,0,0,1-3.79,1.28,4.85,4.85,0,0,1-3.34-1.05,3.51,3.51,0,0,1-1.18-2.76,5.27,5.27,0,0,1,.75-2.89,5.58,5.58,0,0,1,1.76-1.79,10,10,0,0,1,2.23-1,10.35,10.35,0,0,1,2.93-.61l.06,0c0-1-1.26-1.49-3.79-1.49a15.16,15.16,0,0,0-2.23.12h0a4.24,4.24,0,0,1,.38-1.53,4.3,4.3,0,0,1,.65-1.19,4.49,4.49,0,0,1,2.18-.27,8.16,8.16,0,0,1,5.13,1.32,5,5,0,0,1,1.65,4.11Zm-3.39,2v-1.16a2.94,2.94,0,0,0,0-.68,5.94,5.94,0,0,0-3.54,1.07,2,2,0,0,0-1,1.68,1.38,1.38,0,0,0,.46,1.07,2,2,0,0,0,1.39.43,3.3,3.3,0,0,0,1.8-.55A2,2,0,0,0,178.72,429Z"/><path class="cls-1" d="M185.29,429.77l-.06-6.94a6.73,6.73,0,0,1,.12-1.92,3,3,0,0,1,1.16-.6,5.23,5.23,0,0,1,1.54-.26c.48,0,.72.06.72.16a17.42,17.42,0,0,0-.09,1.88,3.5,3.5,0,0,0,.06,1.05.17.17,0,0,0,.12-.08l.2-.24c.09-.11.29-.31.58-.6a5.53,5.53,0,0,1,1-.73,5.09,5.09,0,0,1,2.81-.86,2.36,2.36,0,0,1,.25,1.23,5.14,5.14,0,0,1-.43,2.47l-.12.25-.4-.07a4,4,0,0,0-3.45,1.81,2.3,2.3,0,0,0-.49,1.1v2.68a31.15,31.15,0,0,1-.09,3.76c-.57.55-1.69.83-3.36.83-.16,0-.25,0-.25-.1A32.47,32.47,0,0,0,185.29,429.77Z"/><path class="cls-1" d="M206.15,425.37l0,8.13a13.51,13.51,0,0,1-.62,4.24,8.26,8.26,0,0,1-1.53,2.87,7.57,7.57,0,0,1-2.06,1.65,7.71,7.71,0,0,1-3.85,1.07c-.06,0-.18-.15-.37-.46a6.21,6.21,0,0,1-.52-1.23,5,5,0,0,1-.24-1.45,6.37,6.37,0,0,0,2.32-.45,4.36,4.36,0,0,0,1.62-.94,8.92,8.92,0,0,0,.92-1.27,9.47,9.47,0,0,0,.94-4.86l0-.88c0-.13,0-.19-.06-.19s-.08,0-.12.09l-.15.23a4.55,4.55,0,0,1-.45.49,5,5,0,0,1-.75.63,3.76,3.76,0,0,1-2.15.73,4.43,4.43,0,0,1-1.71-.27,3.3,3.3,0,0,1-1-.71,3.39,3.39,0,0,1-.69-1.2,13.36,13.36,0,0,1-.42-1.46,10.12,10.12,0,0,1-.22-1.83q-.12-1.62-.12-3.36a26.27,26.27,0,0,1,.24-3.94l.1-.43q0-.21.93-.42a6.73,6.73,0,0,1,1.54-.22l1,.16a45.9,45.9,0,0,0-.34,5.1,11.66,11.66,0,0,0,.43,3.45c.28.91.76,1.37,1.44,1.37a2.19,2.19,0,0,0,1.6-.59,2.65,2.65,0,0,0,.75-1.18l.15-.58q-.06-1.92-.06-4.14a8.28,8.28,0,0,1,.15-2.37,3,3,0,0,1,1.39-.61,8.15,8.15,0,0,1,1.61-.21c.4,0,.61,0,.61.09A32.78,32.78,0,0,0,206.15,425.37Z"/><path class="cls-1" d="M218.71,419.08l0,1.43q8.12,0,8.12,6.3a6.89,6.89,0,0,1-.69,3.1,6.38,6.38,0,0,1-1.69,2.2,10.31,10.31,0,0,1-2.2,1.35,8.8,8.8,0,0,1-3.67,1v.46a48.22,48.22,0,0,0,.25,6.11,3,3,0,0,1-1.38.63,7.46,7.46,0,0,1-1.58.23c-.41,0-.62,0-.62-.1-.08-.65-.12-2-.12-4l.15-14.2c0-1.67,0-2.83-.09-3.49a3.9,3.9,0,0,1,1.24-.7,4.35,4.35,0,0,1,1.51-.33A2.1,2.1,0,0,1,218.71,419.08Zm-.16,10.41,0,1.53a5.18,5.18,0,0,0,3.27-1.07,3.63,3.63,0,0,0,1.41-3.08q0-3.3-4.61-3.3l0,.39v1Z"/><path class="cls-1" d="M229.31,429.77l-.06-6.94a6.73,6.73,0,0,1,.12-1.92,3,3,0,0,1,1.16-.6,5.23,5.23,0,0,1,1.54-.26c.48,0,.72.06.72.16a17.42,17.42,0,0,0-.09,1.88,3.5,3.5,0,0,0,.06,1.05.17.17,0,0,0,.12-.08l.2-.24c.09-.11.28-.31.58-.6a5.18,5.18,0,0,1,1-.73,5.07,5.07,0,0,1,2.81-.86,2.36,2.36,0,0,1,.25,1.23,5.26,5.26,0,0,1-.43,2.47l-.12.25-.4-.07a4,4,0,0,0-3.45,1.81,2.3,2.3,0,0,0-.49,1.1v2.68a31.15,31.15,0,0,1-.09,3.76c-.57.55-1.69.83-3.36.83-.17,0-.25,0-.25-.1A32.47,32.47,0,0,0,229.31,429.77Z"/><path class="cls-1" d="M249.79,432.56a5.85,5.85,0,0,1-4.77,2.13,6.07,6.07,0,0,1-4.72-1.87,6.86,6.86,0,0,1-1.71-4.84,7.55,7.55,0,0,1,2.13-5.28,7.38,7.38,0,0,1,5.72-2.31,5,5,0,0,1,1.59.18.94.94,0,0,1,.12.58,6.19,6.19,0,0,1-.09,1,2.17,2.17,0,0,1,1.18.54,7,7,0,0,1,1.18,1.08,5.12,5.12,0,0,1,.79,1.54,7,7,0,0,1,.34,2.22A7.63,7.63,0,0,1,249.79,432.56Zm-2.7-7.16a2.5,2.5,0,0,0-1.38-.46h-.24a1.39,1.39,0,0,1-.06-.52,3.16,3.16,0,0,1,.09-.76,3.22,3.22,0,0,0-2.34,1.13,4.36,4.36,0,0,0-1.08,3.15,3.54,3.54,0,0,0,1.52,3.3,3,3,0,0,0,1.61.36,2.61,2.61,0,0,0,1.92-1,3.92,3.92,0,0,0,.9-2.81A2.66,2.66,0,0,0,247.09,425.4Z"/><path class="cls-1" d="M259.73,429.4l.06,4.31a12.63,12.63,0,0,1-.64,4.21,8.35,8.35,0,0,1-1.56,2.85,7.27,7.27,0,0,1-2.1,1.61,8.11,8.11,0,0,1-3.88,1c-.07,0-.19-.15-.37-.46a5.67,5.67,0,0,1-.52-1.25,5.1,5.1,0,0,1-.24-1.46h.3a6.6,6.6,0,0,0,2.6-.65q2.84-1.43,2.84-6.69.06-2,.06-4.65a9.12,9.12,0,0,0-.21-2.89,4.54,4.54,0,0,0-1.84-.73l-.46-.1a.75.75,0,0,1-.06-.33,2.72,2.72,0,0,1,.43-1.83,11.37,11.37,0,0,1,5.07-.92,1.48,1.48,0,0,1,.61.06Q259.73,425.62,259.73,429.4Zm-2-13.74a1.78,1.78,0,0,1,1.36.55,2.1,2.1,0,0,1-.17,2.94,2.2,2.2,0,0,1-1.52.63,1.74,1.74,0,0,1-1.35-.55,2.05,2.05,0,0,1-.5-1.42,2,2,0,0,1,.67-1.51A2.12,2.12,0,0,1,257.76,415.66Z"/><path class="cls-1" d="M272.59,433.89c-.69.47-2,.7-4.06.7a5.91,5.91,0,0,1-4.64-1.8,6.91,6.91,0,0,1-1.62-4.81,7.63,7.63,0,0,1,1.94-5.22,6.85,6.85,0,0,1,5.45-2.22,4.82,4.82,0,0,1,2.64.77,2.9,2.9,0,0,1,1.21,2.67,5.68,5.68,0,0,1-1.67,3.77,10.36,10.36,0,0,1-4.53,2.84q0,.38.75.6a5.07,5.07,0,0,0,1.48.23,7,7,0,0,0,3.66-.83.12.12,0,0,1,.09,0s.07.2.07.58A4.37,4.37,0,0,1,272.59,433.89Zm-2.66-9.71c0-.59-.31-.89-.94-.89a2.7,2.7,0,0,0-2.2,1.29,5,5,0,0,0-1,3.08c0,.29,0,.43.12.43a4.32,4.32,0,0,0,2.54-1.27A3.48,3.48,0,0,0,269.93,424.18Z"/><path class="cls-1" d="M281.66,434.78q-3.48,0-5.16-1.77a6.23,6.23,0,0,1-1.68-4.46,7.6,7.6,0,0,1,2.52-6,8.94,8.94,0,0,1,6.16-2.23,5.73,5.73,0,0,1,.82,0c.12.1.19.59.19,1.47s-.13,1.4-.37,1.59h-.22a6.19,6.19,0,0,0-3.81,1.09A3.71,3.71,0,0,0,279,426a5.44,5.44,0,0,0-.46,2.35,3.24,3.24,0,0,0,.82,2.28,3.46,3.46,0,0,0,2.66.9,5.58,5.58,0,0,0,2.54-.55l.15-.06a3.1,3.1,0,0,1,.24,1.65c0,.94-.11,1.49-.33,1.68A6.1,6.1,0,0,1,281.66,434.78Z"/><path class="cls-1" d="M291.1,413.88c0,.47-.09,1.76-.15,3.85a11,11,0,0,1,2.29.09,5.28,5.28,0,0,1-.3,1.85c-.21.54-.4.81-.58.81h-1.44q-.06,4.53-.06,7.35c0,1.88,0,3.14.09,3.77a4.09,4.09,0,0,0,1.25,2.6c0,.22-.39.55-1.17,1a4.78,4.78,0,0,1-2.22.64c-.06,0-.18-.11-.35-.31a3.87,3.87,0,0,1-.55-1,5.48,5.48,0,0,1-.37-1.37c-.05-.45-.07-2.05-.07-4.8s0-5.34.09-7.79l-1.71,0a2.91,2.91,0,0,1-.15-1.32c0-.79.09-1.26.27-1.43l1.62-.06a17.55,17.55,0,0,0-.09-2.29,6,6,0,0,1-.09-.61c0-.2.35-.44,1-.7a5.24,5.24,0,0,1,1.85-.4C290.84,413.76,291.1,413.8,291.1,413.88Z"/><path class="cls-1" d="M302.83,430.38a3.8,3.8,0,0,1-1.54,2.95,9.85,9.85,0,0,1-3.33,1.86,10.47,10.47,0,0,1-3.13.57c-.1,0-.24-.13-.43-.37a3.78,3.78,0,0,1-.76-2.35v-.22a6.59,6.59,0,0,0,3.63-.82q1.26-.83,1.26-1.71a1.71,1.71,0,0,0-.77-1.22,9.32,9.32,0,0,0-1.68-1.13,6.66,6.66,0,0,1-1.68-1.3,2.46,2.46,0,0,1-.76-1.7c0-1.24.77-2.38,2.32-3.42a8.73,8.73,0,0,1,5-1.56c.2,0,.47.28.79.84a3.62,3.62,0,0,1,.52,1.73,6.82,6.82,0,0,0-1.83.37c-1.61.5-2.41,1.14-2.41,1.89,0,.53.79,1.25,2.38,2.17a6,6,0,0,1,1.68,1.43A3.19,3.19,0,0,1,302.83,430.38Z"/><path class="cls-1" d="M318.87,420.79l-.06-4.52a9.19,9.19,0,0,1,.09-2,4.12,4.12,0,0,1,1.21-.72,4.21,4.21,0,0,1,1.6-.35c.51,0,.77,0,.77.12q-.25,5.07-.25,10.79a68.07,68.07,0,0,0,.18,6.81,4.15,4.15,0,0,0,1,2.44c0,.21-.42.53-1.27,1A5,5,0,0,1,320,435q-.09,0-.27-.24a4,4,0,0,1-.71-2.08q0-.09-.06-.09l-.09.06a4.36,4.36,0,0,1-3.82,1.83,3.82,3.82,0,0,1-3.24-1.62,6,6,0,0,1-1.19-3.63,8.62,8.62,0,0,1,2.14-5.88A8.06,8.06,0,0,1,318.87,420.79Zm.06,3.21c0-.05-.11-.07-.33-.07h-.13a3.9,3.9,0,0,0-3.07,1.26,4.59,4.59,0,0,0-1.11,3.17,3,3,0,0,0,.53,1.85,1.9,1.9,0,0,0,1.62.72,2,2,0,0,0,1.74-.95,3,3,0,0,0,.66-1.49C318.84,426.22,318.87,424.73,318.93,424Z"/><path class="cls-1" d="M335.73,433.89c-.69.47-2,.7-4.06.7a5.91,5.91,0,0,1-4.64-1.8,6.91,6.91,0,0,1-1.62-4.81,7.63,7.63,0,0,1,1.94-5.22,6.85,6.85,0,0,1,5.45-2.22,4.82,4.82,0,0,1,2.64.77,2.9,2.9,0,0,1,1.21,2.67,5.68,5.68,0,0,1-1.67,3.77,10.36,10.36,0,0,1-4.53,2.84q0,.38.75.6a5.12,5.12,0,0,0,1.48.23,6.94,6.94,0,0,0,3.66-.83.15.15,0,0,1,.1,0s.06.2.06.58A4.37,4.37,0,0,1,335.73,433.89Zm-2.65-9.71c0-.59-.32-.89-.95-.89a2.7,2.7,0,0,0-2.2,1.29,5,5,0,0,0-.95,3.08c0,.29,0,.43.12.43a4.32,4.32,0,0,0,2.54-1.27A3.49,3.49,0,0,0,333.08,424.18Z"/><path class="cls-1" d="M347.52,430.38a3.8,3.8,0,0,1-1.54,2.95,9.85,9.85,0,0,1-3.33,1.86,10.47,10.47,0,0,1-3.13.57c-.1,0-.24-.13-.43-.37a3.78,3.78,0,0,1-.76-2.35v-.22A6.59,6.59,0,0,0,342,432q1.26-.83,1.26-1.71a1.71,1.71,0,0,0-.77-1.22,9.32,9.32,0,0,0-1.68-1.13,6.66,6.66,0,0,1-1.68-1.3,2.46,2.46,0,0,1-.76-1.7c0-1.24.77-2.38,2.32-3.42a8.73,8.73,0,0,1,5-1.56c.2,0,.47.28.79.84a3.62,3.62,0,0,1,.52,1.73,6.89,6.89,0,0,0-1.83.37c-1.61.5-2.41,1.14-2.41,1.89,0,.53.79,1.25,2.38,2.17a6,6,0,0,1,1.68,1.43A3.19,3.19,0,0,1,347.52,430.38Z"/><path class="cls-1" d="M359.53,433.89c-.69.47-2,.7-4.06.7a5.93,5.93,0,0,1-4.65-1.8A6.91,6.91,0,0,1,349.2,428a7.68,7.68,0,0,1,1.94-5.22,6.87,6.87,0,0,1,5.46-2.22,4.87,4.87,0,0,1,2.64.77,2.92,2.92,0,0,1,1.21,2.67,5.68,5.68,0,0,1-1.67,3.77,10.34,10.34,0,0,1-4.54,2.84q0,.38.75.6a5.18,5.18,0,0,0,1.48.23,7,7,0,0,0,3.67-.83.12.12,0,0,1,.09,0s.06.2.06.58A4.37,4.37,0,0,1,359.53,433.89Zm-2.66-9.71c0-.59-.31-.89-.95-.89a2.7,2.7,0,0,0-2.19,1.29,5,5,0,0,0-1,3.08c0,.29,0,.43.12.43a4.35,4.35,0,0,0,2.54-1.27A3.51,3.51,0,0,0,356.87,424.18Z"/><path class="cls-1" d="M362.8,429.77l-.06-6.94a6.73,6.73,0,0,1,.12-1.92,3,3,0,0,1,1.16-.6,5.23,5.23,0,0,1,1.54-.26c.48,0,.72.06.72.16a17.42,17.42,0,0,0-.09,1.88,3.5,3.5,0,0,0,.06,1.05.17.17,0,0,0,.12-.08l.2-.24c.09-.11.28-.31.58-.6a5.18,5.18,0,0,1,1-.73,5.07,5.07,0,0,1,2.81-.86,2.36,2.36,0,0,1,.25,1.23,5.26,5.26,0,0,1-.43,2.47l-.12.25-.4-.07a4,4,0,0,0-3.45,1.81,2.3,2.3,0,0,0-.49,1.1v2.68a31.15,31.15,0,0,1-.09,3.76c-.57.55-1.69.83-3.36.83-.17,0-.25,0-.25-.1A32.47,32.47,0,0,0,362.8,429.77Z"/><path class="cls-1" d="M377.34,434.56a4.65,4.65,0,0,1-1.41-.18,50,50,0,0,0-1.94-6.46q-1.94-5.82-1.94-7s.11-.13.32-.26a4.73,4.73,0,0,1,1.12-.41,6.62,6.62,0,0,1,1.8-.22,73.49,73.49,0,0,0,2.81,9.69q0,.15.12,0a29.91,29.91,0,0,0,1.68-5.18,45.19,45.19,0,0,0,1.26-5.48c0-.13.24-.23.67-.32a7.74,7.74,0,0,1,1.68-.14,2.31,2.31,0,0,1,1.4.3,59.53,59.53,0,0,1-2.17,7.9,73.83,73.83,0,0,1-2.41,7.25,4.11,4.11,0,0,1-2.35.52Z"/><path class="cls-1" d="M396.46,433.89c-.69.47-2,.7-4.06.7a5.93,5.93,0,0,1-4.65-1.8,6.91,6.91,0,0,1-1.62-4.81,7.68,7.68,0,0,1,1.94-5.22,6.88,6.88,0,0,1,5.46-2.22,4.87,4.87,0,0,1,2.64.77,2.92,2.92,0,0,1,1.21,2.67,5.68,5.68,0,0,1-1.67,3.77,10.36,10.36,0,0,1-4.53,2.84c0,.25.24.45.74.6a5.18,5.18,0,0,0,1.48.23,7,7,0,0,0,3.67-.83.12.12,0,0,1,.09,0s.06.2.06.58A4.37,4.37,0,0,1,396.46,433.89Zm-2.66-9.71c0-.59-.31-.89-.95-.89a2.7,2.7,0,0,0-2.19,1.29,5,5,0,0,0-1,3.08c0,.29,0,.43.12.43a4.35,4.35,0,0,0,2.54-1.27A3.51,3.51,0,0,0,393.8,424.18Z"/><path class="cls-1" d="M415.49,433.89c-.69.47-2.05.7-4.06.7a5.93,5.93,0,0,1-4.65-1.8,7,7,0,0,1-1.61-4.81,7.63,7.63,0,0,1,1.94-5.22,6.85,6.85,0,0,1,5.45-2.22,4.82,4.82,0,0,1,2.64.77,2.9,2.9,0,0,1,1.21,2.67,5.68,5.68,0,0,1-1.67,3.77,10.36,10.36,0,0,1-4.53,2.84c0,.25.25.45.74.6a5.19,5.19,0,0,0,1.49.23,7,7,0,0,0,3.66-.83.12.12,0,0,1,.09,0s.06.2.06.58A4.37,4.37,0,0,1,415.49,433.89Zm-2.66-9.71c0-.59-.31-.89-.94-.89a2.7,2.7,0,0,0-2.2,1.29,5,5,0,0,0-.95,3.08c0,.29,0,.43.12.43a4.32,4.32,0,0,0,2.54-1.27A3.51,3.51,0,0,0,412.83,424.18Z"/><path class="cls-1" d="M430.61,432.18c0,.39-.35,1-1.07,1.73s-1.25,1.14-1.62,1.14c-.59-.24-2.05-1.91-4.4-5a61.11,61.11,0,0,0-3,5.5,3.09,3.09,0,0,1-1.76-.75,3.9,3.9,0,0,1-1.23-1.29q0-.58,3.91-6.36c-2-2.75-3-4.27-3-4.58a3.59,3.59,0,0,1,1-1.44,3.66,3.66,0,0,1,1.5-1,28.82,28.82,0,0,0,2.56,4,27.73,27.73,0,0,1,4.16-5,4.07,4.07,0,0,1,1.44.67c.73.45,1.1.78,1.1,1a38.72,38.72,0,0,0-4.65,6.05Q428.84,431.15,430.61,432.18Z"/><path class="cls-1" d="M436.17,413.88c0,.47-.09,1.76-.15,3.85a11,11,0,0,1,2.29.09,5.05,5.05,0,0,1-.31,1.85c-.2.54-.39.81-.58.81H436q-.06,4.53-.06,7.35c0,1.88,0,3.14.09,3.77a4.09,4.09,0,0,0,1.25,2.6c0,.22-.39.55-1.17,1a4.78,4.78,0,0,1-2.22.64c-.06,0-.18-.11-.35-.31a3.87,3.87,0,0,1-.55-1,4.74,4.74,0,0,1-.37-1.37c-.05-.45-.07-2.05-.07-4.8s0-5.34.09-7.79l-1.71,0c-.11-.1-.16-.54-.16-1.32s.1-1.26.28-1.43l1.62-.06a17.55,17.55,0,0,0-.09-2.29,6,6,0,0,1-.09-.61c0-.2.35-.44,1-.7a5.24,5.24,0,0,1,1.85-.4C435.91,413.76,436.17,413.8,436.17,413.88Z"/><path class="cls-1" d="M439.44,429.77l-.06-6.94a6.73,6.73,0,0,1,.12-1.92,3,3,0,0,1,1.16-.6,5.28,5.28,0,0,1,1.54-.26c.48,0,.72.06.72.16a17.42,17.42,0,0,0-.09,1.88,3.5,3.5,0,0,0,.06,1.05.17.17,0,0,0,.12-.08l.2-.24c.09-.11.29-.31.58-.6a5.53,5.53,0,0,1,1-.73,5.09,5.09,0,0,1,2.81-.86,2.36,2.36,0,0,1,.25,1.23,5.14,5.14,0,0,1-.43,2.47l-.12.25-.4-.07a4,4,0,0,0-3.45,1.81,2.3,2.3,0,0,0-.49,1.1v2.68a31.15,31.15,0,0,1-.09,3.76c-.57.55-1.69.83-3.36.83-.16,0-.24,0-.24-.1A34.51,34.51,0,0,0,439.44,429.77Z"/><path class="cls-1" d="M459.33,427.08c0,2.55,0,4,.09,4.46a4,4,0,0,0,1,2.41c0,.23-.41.56-1.21,1a4.56,4.56,0,0,1-2.18.67c-.19,0-.38-.27-.59-.81a5.94,5.94,0,0,1-.35-1.2c0-.27-.05-.4-.07-.4l-.09.06a5.91,5.91,0,0,1-3.79,1.28,4.87,4.87,0,0,1-3.35-1.05,3.53,3.53,0,0,1-1.17-2.76,5.35,5.35,0,0,1,.74-2.89,5.58,5.58,0,0,1,1.76-1.79,13,13,0,0,1,5.16-1.59l.07,0c0-1-1.27-1.49-3.79-1.49a15.07,15.07,0,0,0-2.23.12h0a4,4,0,0,1,.38-1.53,4.35,4.35,0,0,1,.64-1.19,4.49,4.49,0,0,1,2.18-.27q3.49,0,5.14,1.32a5,5,0,0,1,1.65,4.11Zm-3.39,2v-1.16a2.54,2.54,0,0,0,0-.68,6,6,0,0,0-3.54,1.07,2,2,0,0,0-.95,1.68,1.41,1.41,0,0,0,.46,1.07,2,2,0,0,0,1.39.43,3.3,3.3,0,0,0,1.8-.55A2,2,0,0,0,455.94,429Z"/><path class="cls-1" d="M473,432.56a5.87,5.87,0,0,1-4.77,2.13,6.07,6.07,0,0,1-4.72-1.87,6.86,6.86,0,0,1-1.71-4.84A7.59,7.59,0,0,1,464,422.7a7.42,7.42,0,0,1,5.73-2.31,5,5,0,0,1,1.59.18.94.94,0,0,1,.12.58,6.19,6.19,0,0,1-.09,1,2.17,2.17,0,0,1,1.18.54,6.53,6.53,0,0,1,1.17,1.08,4.9,4.9,0,0,1,.8,1.54,7,7,0,0,1,.33,2.22A7.62,7.62,0,0,1,473,432.56Zm-2.71-7.16a2.47,2.47,0,0,0-1.37-.46h-.25a1.39,1.39,0,0,1-.06-.52,3.16,3.16,0,0,1,.09-.76,3.22,3.22,0,0,0-2.33,1.13,4.32,4.32,0,0,0-1.09,3.15,3.54,3.54,0,0,0,1.53,3.3,3,3,0,0,0,1.6.36,2.62,2.62,0,0,0,1.93-1,3.92,3.92,0,0,0,.9-2.81A2.66,2.66,0,0,0,470.32,425.4Z"/><path class="cls-1" d="M477.29,429.77l-.06-6.94a6.73,6.73,0,0,1,.12-1.92,3,3,0,0,1,1.16-.6,5.23,5.23,0,0,1,1.54-.26c.48,0,.72.06.72.16a17.42,17.42,0,0,0-.09,1.88,3.5,3.5,0,0,0,.06,1.05.17.17,0,0,0,.12-.08l.2-.24c.09-.11.29-.31.58-.6a5.53,5.53,0,0,1,1-.73,5.09,5.09,0,0,1,2.81-.86,2.36,2.36,0,0,1,.25,1.23,5.14,5.14,0,0,1-.43,2.47l-.12.25-.4-.07a4,4,0,0,0-3.45,1.81,2.3,2.3,0,0,0-.49,1.1v2.68a31.15,31.15,0,0,1-.09,3.76c-.57.55-1.69.83-3.36.83-.16,0-.25,0-.25-.1A32.47,32.47,0,0,0,477.29,429.77Z"/><path class="cls-1" d="M494.82,420.79l-.06-4.52a9.19,9.19,0,0,1,.09-2,4.12,4.12,0,0,1,1.21-.72,4.21,4.21,0,0,1,1.6-.35c.51,0,.77,0,.77.12q-.26,5.07-.25,10.79a63.51,63.51,0,0,0,.19,6.81,4.08,4.08,0,0,0,1,2.44c0,.21-.42.53-1.26,1A5,5,0,0,1,496,435q-.09,0-.27-.24a4,4,0,0,1-.7-2.08c0-.06,0-.09-.07-.09l-.09.06a4.36,4.36,0,0,1-3.82,1.83,3.79,3.79,0,0,1-3.23-1.62,6,6,0,0,1-1.2-3.63,8.62,8.62,0,0,1,2.14-5.88A8.06,8.06,0,0,1,494.82,420.79Zm.06,3.21c0-.05-.11-.07-.33-.07h-.12a3.91,3.91,0,0,0-3.08,1.26,4.59,4.59,0,0,0-1.11,3.17,3,3,0,0,0,.53,1.85,1.9,1.9,0,0,0,1.62.72,2,2,0,0,0,1.74-.95,3,3,0,0,0,.66-1.49C494.79,426.22,494.82,424.73,494.88,424Z"/><path class="cls-1" d="M503.15,415.66a1.78,1.78,0,0,1,1.36.55,2,2,0,0,1,.51,1.43,2,2,0,0,1-.68,1.51,2.22,2.22,0,0,1-1.53.63,1.76,1.76,0,0,1-1.34-.53,2,2,0,0,1-.51-1.43,2,2,0,0,1,.67-1.52A2.15,2.15,0,0,1,503.15,415.66Zm1.54,7.6-.06,4.95a29.68,29.68,0,0,0,.14,3.5,4.92,4.92,0,0,0,.77,2.09c0,.2-.41.53-1.25,1a4.69,4.69,0,0,1-2.14.67c-.18,0-.36-.3-.55-.92a9.09,9.09,0,0,1-.35-1.74c-.05-.55-.07-2.4-.07-5.56a28.82,28.82,0,0,1,.21-5.16,4.11,4.11,0,0,1,2.47-.55c.47,0,.76.06.86.18Z"/><path class="cls-1" d="M511.38,427l0,1.13v2.32a19.57,19.57,0,0,1-.12,3.39,2.78,2.78,0,0,1-1.38.61,7.34,7.34,0,0,1-1.6.22c-.42,0-.63,0-.63-.1a33.25,33.25,0,0,0,.22-4.52l-.1-6.87a5.91,5.91,0,0,1,.16-2.05,2.87,2.87,0,0,1,1.16-.59,5.23,5.23,0,0,1,1.54-.26q.72,0,.72.15a12.08,12.08,0,0,0-.09,1.47c0,.49,0,.73.09.73l.09-.06a4.34,4.34,0,0,1,.46-.53,5.42,5.42,0,0,1,1.3-.86,3.94,3.94,0,0,1,1.89-.53,3.26,3.26,0,0,1,1.53.32,3.38,3.38,0,0,1,1,.77,4,4,0,0,1,.69,1.32,13.85,13.85,0,0,1,.44,1.59,18,18,0,0,1,.25,1.95c.06,1.12.09,2.55.09,4.28l-.09,3.57c0,.15-.34.28-1,.42a8.85,8.85,0,0,1-1.62.19l-1-.15a49.18,49.18,0,0,0,.31-5.33,16.86,16.86,0,0,0-.34-3.88c-.22-.86-.67-1.3-1.34-1.3a2.42,2.42,0,0,0-1.64.55,2.66,2.66,0,0,0-.81,1.1l-.21.52Z"/><path class="cls-1" d="M532.79,427.08c0,2.55,0,4,.09,4.46a4,4,0,0,0,1,2.41c0,.23-.4.56-1.2,1a4.59,4.59,0,0,1-2.19.67c-.18,0-.38-.27-.58-.81a5.94,5.94,0,0,1-.35-1.2c0-.27-.06-.4-.08-.4l-.09.06a5.88,5.88,0,0,1-3.78,1.28,4.86,4.86,0,0,1-3.35-1.05,3.54,3.54,0,0,1-1.18-2.76,5.27,5.27,0,0,1,.75-2.89,5.58,5.58,0,0,1,1.76-1.79,10,10,0,0,1,2.23-1,10.35,10.35,0,0,1,2.93-.61l.06,0c0-1-1.26-1.49-3.79-1.49a15.16,15.16,0,0,0-2.23.12h0a6,6,0,0,1,1-2.72,4.49,4.49,0,0,1,2.18-.27,8.16,8.16,0,0,1,5.13,1.32,5,5,0,0,1,1.65,4.11Zm-3.39,2v-1.16a2.94,2.94,0,0,0,0-.68,6,6,0,0,0-3.54,1.07,2,2,0,0,0-1,1.68,1.38,1.38,0,0,0,.46,1.07,2,2,0,0,0,1.39.43,3.3,3.3,0,0,0,1.8-.55A2,2,0,0,0,529.4,429Z"/><path class="cls-1" d="M536,429.77l-.06-6.94a6.73,6.73,0,0,1,.12-1.92,3,3,0,0,1,1.16-.6,5.28,5.28,0,0,1,1.54-.26c.48,0,.72.06.72.16a17.42,17.42,0,0,0-.09,1.88,3.5,3.5,0,0,0,.06,1.05.17.17,0,0,0,.12-.08l.2-.24c.09-.11.29-.31.58-.6a5.53,5.53,0,0,1,1-.73,5.1,5.1,0,0,1,2.82-.86,2.47,2.47,0,0,1,.24,1.23,5.14,5.14,0,0,1-.43,2.47l-.12.25-.4-.07a4,4,0,0,0-3.45,1.81,2.3,2.3,0,0,0-.49,1.1v2.68a31.15,31.15,0,0,1-.09,3.76c-.57.55-1.69.83-3.36.83-.16,0-.24,0-.24-.1A34.51,34.51,0,0,0,536,429.77Z"/><path class="cls-1" d="M556.83,425.37l0,8.13a13.51,13.51,0,0,1-.62,4.24,8.26,8.26,0,0,1-1.53,2.87,7.57,7.57,0,0,1-2.06,1.65,7.68,7.68,0,0,1-3.85,1.07c-.06,0-.18-.15-.37-.46a6.21,6.21,0,0,1-.52-1.23,5,5,0,0,1-.24-1.45,6.37,6.37,0,0,0,2.32-.45,4.36,4.36,0,0,0,1.62-.94,8.2,8.2,0,0,0,.92-1.27,9.47,9.47,0,0,0,.94-4.86l0-.88c0-.13,0-.19-.06-.19s-.08,0-.12.09l-.15.23a3.65,3.65,0,0,1-.45.49,5.48,5.48,0,0,1-.74.63,3.81,3.81,0,0,1-2.16.73,4.43,4.43,0,0,1-1.71-.27,3.3,3.3,0,0,1-1-.71,3.39,3.39,0,0,1-.69-1.2,13.36,13.36,0,0,1-.42-1.46,11.12,11.12,0,0,1-.22-1.83q-.12-1.62-.12-3.36a24.83,24.83,0,0,1,.25-3.94l.09-.43q0-.21.93-.42a6.73,6.73,0,0,1,1.54-.22l1,.16a45.9,45.9,0,0,0-.34,5.1,12,12,0,0,0,.43,3.45c.29.91.76,1.37,1.44,1.37a2.19,2.19,0,0,0,1.6-.59,2.65,2.65,0,0,0,.75-1.18l.15-.58q-.06-1.92-.06-4.14a8.28,8.28,0,0,1,.15-2.37,3,3,0,0,1,1.39-.61,8.15,8.15,0,0,1,1.61-.21c.4,0,.61,0,.61.09A32.78,32.78,0,0,0,556.83,425.37Z"/><path class="cls-1" d="M574.28,422c1.36,0,2.06.13,2.1.4a38.25,38.25,0,0,0,1.62,7h.12a27.63,27.63,0,0,0,1.5-5,40.84,40.84,0,0,0,1-5.07,6.22,6.22,0,0,1,3,.64c.25.13.37.21.37.25a21.42,21.42,0,0,1-.93,4.73c-.62,2.26-1.25,4.31-1.87,6.16a26.19,26.19,0,0,1-1,2.88,2.73,2.73,0,0,1-1.07.26,11.08,11.08,0,0,1-1.74.14,2.83,2.83,0,0,1-1-.12,12.27,12.27,0,0,1-1-3,41.44,41.44,0,0,1-1-4.56h-.09c-.3,1.25-.72,2.71-1.23,4.4a15.31,15.31,0,0,1-1,2.74,2.87,2.87,0,0,1-1.22.39,8.61,8.61,0,0,1-1.65.2,1.41,1.41,0,0,1-.7-.09,45.15,45.15,0,0,1-1.83-6.05,40.54,40.54,0,0,1-1.59-7.3s.1-.12.32-.26a4.28,4.28,0,0,1,1.13-.39,7.25,7.25,0,0,1,1.82-.2,43.63,43.63,0,0,0,2.07,8.76c0,.11.1.11.16,0a16.84,16.84,0,0,0,1.07-3.11,23.58,23.58,0,0,0,.67-3.39c0-.1.26-.2.73-.28A8.22,8.22,0,0,1,574.28,422Z"/><path class="cls-1" d="M596.56,432.56a5.85,5.85,0,0,1-4.77,2.13,6.09,6.09,0,0,1-4.72-1.87,6.86,6.86,0,0,1-1.71-4.84,7.55,7.55,0,0,1,2.13-5.28,7.39,7.39,0,0,1,5.73-2.31,5,5,0,0,1,1.58.18.92.92,0,0,1,.13.58,5.31,5.31,0,0,1-.1,1,2.17,2.17,0,0,1,1.18.54,7,7,0,0,1,1.18,1.08,4.9,4.9,0,0,1,.79,1.54,7,7,0,0,1,.34,2.22A7.63,7.63,0,0,1,596.56,432.56Zm-2.7-7.16a2.5,2.5,0,0,0-1.38-.46h-.24a1.39,1.39,0,0,1-.06-.52,3.16,3.16,0,0,1,.09-.76,3.22,3.22,0,0,0-2.34,1.13,4.36,4.36,0,0,0-1.08,3.15,3.54,3.54,0,0,0,1.52,3.3,3.07,3.07,0,0,0,1.61.36,2.61,2.61,0,0,0,1.92-1,3.92,3.92,0,0,0,.9-2.81A2.66,2.66,0,0,0,593.86,425.4Z"/><path class="cls-1" d="M600.82,429.77l-.06-6.94a6.73,6.73,0,0,1,.12-1.92,3.08,3.08,0,0,1,1.16-.6,5.29,5.29,0,0,1,1.55-.26c.47,0,.71.06.71.16a17.42,17.42,0,0,0-.09,1.88,3.5,3.5,0,0,0,.06,1.05s.08,0,.13-.08l.19-.24.58-.6a5.24,5.24,0,0,1,1-.73,5,5,0,0,1,2.81-.86,2.47,2.47,0,0,1,.24,1.23,5.14,5.14,0,0,1-.43,2.47l-.12.25-.4-.07a4,4,0,0,0-3.45,1.81,2.41,2.41,0,0,0-.49,1.1v2.68a31.15,31.15,0,0,1-.09,3.76c-.57.55-1.69.83-3.36.83-.16,0-.24,0-.24-.1A34.51,34.51,0,0,0,600.82,429.77Z"/><path class="cls-1" d="M611,428l-.09-10.6a13.7,13.7,0,0,1,.15-3.12,3.78,3.78,0,0,1,1.2-.7,4.06,4.06,0,0,1,1.58-.34c.51,0,.77,0,.77.12s-.07,1.53-.14,4.28-.11,4.53-.11,5.33,0,1.26,0,1.38.06.16.13.16l.06,0a31.22,31.22,0,0,1,2.9-2.59,6.56,6.56,0,0,1,2.47-1.56c1.2.75,1.81,1.36,1.81,1.83a23.52,23.52,0,0,0-2.17,1.59,6.59,6.59,0,0,0-1.38,1.28,10,10,0,0,0,.54,1.76,30.22,30.22,0,0,0,1.57,3.56,11.94,11.94,0,0,0,2.08,3.08c0,.25-.45.55-1.35.92a6.22,6.22,0,0,1-2.32.55c-.24,0-.72-1-1.42-2.87a46.06,46.06,0,0,1-1.45-4.46l-.06-.09c-.08,0-.34.29-.77.88a3,3,0,0,0-.64,1.19l.09,3.12a3,3,0,0,1-.12,1.22,2.69,2.69,0,0,1-1.37.61,7.42,7.42,0,0,1-1.61.22c-.41,0-.62,0-.62-.1A52.33,52.33,0,0,0,611,428Z"/><path class="cls-1" d="M276.65,215.12a12.07,12.07,0,0,1-4.7-.78q0-21.9,3.78-62.45l1.18-13.43a22.91,22.91,0,0,1-3.46-6.78,23.17,23.17,0,0,1-1.63-6.38l.13-.39q.41-.52,6.52-.92c4.09-.26,8.58-.39,13.5-.39s7.58.22,8,.65,2.52,5.89,6.26,16.36,6.52,18.58,8.34,24.32c.18.43.4.65.66.65s.69-.93,1.3-2.8,3.13-8.39,7.56-19.56,7.39-17.49,8.87-19q1.17-1.17,12.64-1.17t11.47.65a29.69,29.69,0,0,1-1.76,7.69,53.48,53.48,0,0,1-2.93,7.7Q357,180.45,357,212.25q0,1.31-5.28,2.41a43.89,43.89,0,0,1-8.67,1.11c-2.26,0-3.38-.17-3.38-.52q.39-5.34.39-17.27t-.66-28.36q-.64-20.46-1.56-20.47l-.78.79a129.89,129.89,0,0,0-6.72,16.29q-4.1,11.47-6.84,20.6l-2.74,9c-.43.95-1.72,1.43-3.84,1.43a28.42,28.42,0,0,1-5.22-.39c-1.35-.26-2.06-.52-2.15-.78q-.39-1.44-8.08-22.88t-8.87-22.88c-.26-.52-.48-.79-.65-.79s-.3.31-.39.92q-2.36,11.86-2.35,34.87t.65,26.66Q286.55,215.13,276.65,215.12Z"/><path class="cls-1" d="M389.41,213.69l.4-35.86v-1.69q-3.66-5.08-13-21.84t-10.1-17.79a11.1,11.1,0,0,0-8.21-3,4.31,4.31,0,0,1-.13-1.43,13.46,13.46,0,0,1,.84-3.72,11.92,11.92,0,0,1,1.18-2.87,6.71,6.71,0,0,1,2.41-.72,62.3,62.3,0,0,1,11.34-1c3.82,0,5.85.09,6.06.26a72.62,72.62,0,0,1,3.59,7.17q10.17,21.65,15,28.94h.26q.78-2.86,11.15-20.72t12.06-17.86a30.08,30.08,0,0,1,7.82,1,27.87,27.87,0,0,1,6.13,2.28c1.47.83,2.17,1.5,2.08,2q-6.92,7.7-18.31,24.71t-13.5,24.57q-.25,2.61-.26,16.82t1,18.64q0,1.56-4.17,2.35a44.2,44.2,0,0,1-8.14.78C392.3,214.73,390.46,214.38,389.41,213.69Z"/><path class="cls-1" d="M646.57,255.32H20.43l0-20.19L350.83,18.05a11,11,0,0,1,12.08,18.39L63.21,233.32H646.57Z"/></g></svg>