<?xml version="1.0"?>
<svg xmlns="http://www.w3.org/2000/svg" xmlns:xlink="http://www.w3.org/1999/xlink" xmlns:svgjs="http://svgjs.com/svgjs" version="1.1" width="512" height="512" x="0" y="0" viewBox="0 0 64 64" style="enable-background:new 0 0 512 512" xml:space="preserve"><g><path xmlns="http://www.w3.org/2000/svg" d="M62,10a1,1,0,0,0,1-1V5a1,1,0,0,0-1-1H2A1,1,0,0,0,1,5V9a1,1,0,0,0,1,1H3V54H2a1,1,0,0,0-1,1v4a1,1,0,0,0,1,1H62a1,1,0,0,0,1-1V55a1,1,0,0,0-1-1H61V10ZM3,6H61V8H3ZM41.293,17.707l.707.707V22H38V18.414l.707-.707A1,1,0,0,0,39,17V15h2v2A1,1,0,0,0,41.293,17.707ZM59,24v2H33V24Zm-5-7h1a1,1,0,0,1,0,2H54Zm-2,5H48V15h4Zm7,20H33V40H59ZM42.293,33.707l.707.707V38H39V34.414l.707-.707A1,1,0,0,0,40,33V32h2v1A1,1,0,0,0,42.293,33.707Zm10,0,.707.707V38H49V34.414l.707-.707A1,1,0,0,0,50,33V32h2v1A1,1,0,0,0,52.293,33.707ZM59,38H55V34a1,1,0,0,0-.293-.707L54,32.586V31a1,1,0,0,0-1-1H49a1,1,0,0,0-1,1v1.586l-.707.707A1,1,0,0,0,47,34v4H45V34a1,1,0,0,0-.293-.707L44,32.586V31a1,1,0,0,0-1-1H39a1,1,0,0,0-1,1v1.586l-.707.707A1,1,0,0,0,37,34v4H33V28H59ZM5,10H31V54H5ZM61,58H3V56H61ZM37.171,48h5.658a3,3,0,0,1-5.658,0Zm0,4h5.658a3,3,0,0,1-5.658,0Zm12-4h5.658a3,3,0,0,1-5.658,0Zm0,4h5.658a3,3,0,0,1-5.658,0Zm6.8,2A4.948,4.948,0,0,0,57,51a1,1,0,0,0-1-1h-.026A4.948,4.948,0,0,0,57,47a1,1,0,0,0-1-1H48a1,1,0,0,0-1,1,4.948,4.948,0,0,0,1.026,3H48a1,1,0,0,0-1,1,4.948,4.948,0,0,0,1.026,3H43.974A4.948,4.948,0,0,0,45,51a1,1,0,0,0-1-1h-.026A4.948,4.948,0,0,0,45,47a1,1,0,0,0-1-1H36a1,1,0,0,0-1,1,4.948,4.948,0,0,0,1.026,3H36a1,1,0,0,0-1,1,4.948,4.948,0,0,0,1.026,3H33V44H59V54ZM59,22H54V21h1a3,3,0,0,0,0-6H54V14a1,1,0,0,0-1-1H47a1,1,0,0,0-1,1v8H44V18a1,1,0,0,0-.293-.707L43,16.586V14a1,1,0,0,0-1-1H38a1,1,0,0,0-1,1v2.586l-.707.707A1,1,0,0,0,36,18v4H33V10H59Z" fill="#ffffff" data-original="#000000"/><rect xmlns="http://www.w3.org/2000/svg" x="27" y="28" width="2" height="8" fill="#ffffff" data-original="#000000"/><path xmlns="http://www.w3.org/2000/svg" d="M7,13v3H9V14h2V12H8A1,1,0,0,0,7,13Z" fill="#ffffff" data-original="#000000"/><path xmlns="http://www.w3.org/2000/svg" d="M9,48H7v3a1,1,0,0,0,1,1h3V50H9Z" fill="#ffffff" data-original="#000000"/><path xmlns="http://www.w3.org/2000/svg" d="M28,12H25v2h2v2h2V13A1,1,0,0,0,28,12Z" fill="#ffffff" data-original="#000000"/><path xmlns="http://www.w3.org/2000/svg" d="M27,50H25v2h3a1,1,0,0,0,1-1V48H27Z" fill="#ffffff" data-original="#000000"/><rect xmlns="http://www.w3.org/2000/svg" x="13" y="12" width="2" height="2" fill="#ffffff" data-original="#000000"/></g></svg>
