<?xml version="1.0"?>
<svg xmlns="http://www.w3.org/2000/svg" xmlns:xlink="http://www.w3.org/1999/xlink" xmlns:svgjs="http://svgjs.com/svgjs" version="1.1" width="512" height="512" x="0" y="0" viewBox="0 0 512 512" style="enable-background:new 0 0 512 512" xml:space="preserve" class=""><g>
<g xmlns="http://www.w3.org/2000/svg">
	<g>
		<path d="M271.002,97.904v303.902c74.392-50.087,120.019-133.673,120.019-224.648v-44.963L271.002,97.904z" fill="#000784" data-original="#000000" class=""/>
	</g>
</g>
<g xmlns="http://www.w3.org/2000/svg">
	<g>
		<path d="M120.979,132.194v44.963c0,90.975,45.628,174.562,120.019,224.649V97.904L120.979,132.194z" fill="#000784" data-original="#000000" class=""/>
	</g>
</g>
<g xmlns="http://www.w3.org/2000/svg">
	<g>
		<path d="M256,0L30.964,64.302v112.855c0,144.823,86.015,275.273,219.132,332.309L256,512l5.904-2.534    c133.117-57.035,219.132-187.486,219.132-332.309V64.302L256,0z M263.135,442.292L256,446.146l-7.135-3.854    C151.467,389.608,90.974,288.005,90.974,177.157v-67.584L256,62.413l165.026,47.16v67.584h0    C421.026,288.005,360.534,389.608,263.135,442.292z" fill="#000784" data-original="#000000" class=""/>
	</g>
</g>
<g xmlns="http://www.w3.org/2000/svg">
</g>
<g xmlns="http://www.w3.org/2000/svg">
</g>
<g xmlns="http://www.w3.org/2000/svg">
</g>
<g xmlns="http://www.w3.org/2000/svg">
</g>
<g xmlns="http://www.w3.org/2000/svg">
</g>
<g xmlns="http://www.w3.org/2000/svg">
</g>
<g xmlns="http://www.w3.org/2000/svg">
</g>
<g xmlns="http://www.w3.org/2000/svg">
</g>
<g xmlns="http://www.w3.org/2000/svg">
</g>
<g xmlns="http://www.w3.org/2000/svg">
</g>
<g xmlns="http://www.w3.org/2000/svg">
</g>
<g xmlns="http://www.w3.org/2000/svg">
</g>
<g xmlns="http://www.w3.org/2000/svg">
</g>
<g xmlns="http://www.w3.org/2000/svg">
</g>
<g xmlns="http://www.w3.org/2000/svg">
</g>
</g></svg>
