<?xml version="1.0"?>
<svg xmlns="http://www.w3.org/2000/svg" xmlns:xlink="http://www.w3.org/1999/xlink" xmlns:svgjs="http://svgjs.com/svgjs" version="1.1" width="512" height="512" x="0" y="0" viewBox="0 0 128 128" style="enable-background:new 0 0 512 512" xml:space="preserve"><g><path xmlns="http://www.w3.org/2000/svg" d="M79.75,68.5a8.25,8.25,0,1,0-8.24-8.24A8.25,8.25,0,0,0,79.75,68.5Zm0-12.49a4.25,4.25,0,1,1-4.24,4.25A4.26,4.26,0,0,1,79.75,56Z" fill="#ffffff" data-original="#000000"/><path xmlns="http://www.w3.org/2000/svg" d="M64,35A11.65,11.65,0,0,0,75.72,23.45c0-5.69-9-19.92-10-21.53a2,2,0,0,0-3.36,0c-1,1.61-10,15.84-10,21.53A11.65,11.65,0,0,0,64,35ZM64,6.79c3.5,5.79,7.72,13.74,7.72,16.66A7.57,7.57,0,0,1,66,30.73V26a2,2,0,0,0-4,0v4.73a7.57,7.57,0,0,1-5.72-7.28C56.28,20.54,60.5,12.58,64,6.79Z" fill="#ffffff" data-original="#000000"/><path xmlns="http://www.w3.org/2000/svg" d="M46,60h4a2,2,0,0,0,0-4h-.92l2.75-6.19a2,2,0,1,0-3.66-1.62l-4,9A2,2,0,0,0,46,60Z" fill="#ffffff" data-original="#000000"/><path xmlns="http://www.w3.org/2000/svg" d="M100,80H94.12a26.07,26.07,0,0,0,8.81-19.55C102.93,46.42,92,35,78.56,35a23.55,23.55,0,0,0-14.56,5V38a2,2,0,0,0-2-2H42a2,2,0,0,0-1.77,1.06l-17,32A2,2,0,0,0,25,72H40v8H28a4,4,0,0,0-4,4v28a4,4,0,0,0,4,4h72a4,4,0,0,0,4-4V84A4,4,0,0,0,100,80ZM78.56,39c11.23,0,20.37,9.62,20.37,21.45a21.69,21.69,0,0,1-11.6,19.36A1.81,1.81,0,0,0,87,80H64V72h2a2,2,0,0,0,2-2V58a2,2,0,0,0-2-2H64V45.36A20.48,20.48,0,0,1,78.56,39ZM42,68H28.33L43.2,40H60V58a2,2,0,0,0,2,2h2v8H62a2,2,0,0,0-2,2V80H44V70A2,2,0,0,0,42,68Zm58,16v20.32a11.78,11.78,0,0,0-7.5-2.66,11.66,11.66,0,0,0-9.5,4.8,11.8,11.8,0,0,0-19,0,11.8,11.8,0,0,0-19,0,11.63,11.63,0,0,0-9.5-4.8,11.77,11.77,0,0,0-7.5,2.67V84Zm0,28H85A7.57,7.57,0,0,1,100,112Zm-19,0H66A7.57,7.57,0,0,1,81,112Zm-19,0H47A7.57,7.57,0,0,1,62,112Zm-19,0H28a7.31,7.31,0,0,1,7.47-6.34A7.31,7.31,0,0,1,43,112Z" fill="#ffffff" data-original="#000000"/></g></svg>
